<svg width="16" height="16" viewBox="0 0 16 16" fill="none" xmlns="http://www.w3.org/2000/svg">
<g clip-path="url(#clip0)">
<path d="M9.79807 4.53652L6.69159 4.37137C6.65554 4.36944 6.61925 4.37754 6.58735 4.39475L4.87614 5.31775C4.82417 5.3458 4.78741 5.39571 4.77611 5.4537C4.76479 5.51171 4.78009 5.57176 4.81771 5.61728L5.69802 6.68219C5.70657 6.67574 5.7153 6.66949 5.72511 6.66434L9.79807 4.53652Z" fill="white"/>
<path d="M15.928 3.43373C15.9264 3.43043 15.9248 3.42716 15.9231 3.42397C15.8003 3.19401 15.5228 2.91992 14.8986 2.91992C14.2422 2.91992 13.5278 3.21801 13.4978 3.23072C11.7663 3.92055 3.61654 8.20901 3.61654 8.20901L1.66496 7.15751C1.60724 7.12643 1.53798 7.12598 1.47997 7.15628L0.10601 7.87387C0.0480488 7.9041 0.00885936 7.96112 0.00130382 8.02606C-0.0061733 8.091 0.0188201 8.15544 0.0682841 8.19821L3.42595 11.1009C3.48731 11.1538 3.57466 11.1641 3.6464 11.1265L6.92524 9.41581L7.42137 12.9115C7.43042 12.9754 7.47013 13.0308 7.5277 13.0599C7.55572 13.0741 7.58629 13.0812 7.61682 13.0812C7.64898 13.0812 7.68116 13.0733 7.71031 13.0576C8.05883 12.8702 8.27638 12.7516 8.4867 12.6368C8.701 12.5198 8.92262 12.3989 9.28119 12.2063C9.31956 12.1857 9.34997 12.153 9.36783 12.1133L11.7014 6.92237L14.1001 5.67003C15.2216 5.10055 16.2907 4.21393 15.928 3.43373Z" fill="white"/>
</g>
<defs>
<clipPath id="clip0">
<rect width="16" height="16" fill="white"/>
</clipPath>
</defs>
</svg>
