<svg width="16" height="16" viewBox="0 0 16 16" fill="none" xmlns="http://www.w3.org/2000/svg">
<path d="M8 6.39961C6.6744 6.39961 5.6 7.47449 5.6 8.79961C5.6 10.1252 6.6744 11.1996 8 11.1996C9.32528 11.1996 10.4 10.1252 10.4 8.79961C10.4 7.47449 9.32528 6.39961 8 6.39961ZM14.4 3.99961H12.48C12.216 3.99961 11.9315 3.79481 11.8482 3.54425L11.3518 2.05481C11.2682 1.80441 10.984 1.59961 10.72 1.59961H5.28C5.016 1.59961 4.73152 1.80441 4.64816 2.05497L4.15184 3.54441C4.06816 3.79481 3.784 3.99961 3.52 3.99961H1.6C0.72 3.99961 0 4.71961 0 5.59961V12.7996C0 13.6796 0.72 14.3996 1.6 14.3996H14.4C15.28 14.3996 16 13.6796 16 12.7996V5.59961C16 4.71961 15.28 3.99961 14.4 3.99961ZM8 12.7996C5.79088 12.7996 4 11.0087 4 8.79961C4 6.59065 5.79088 4.79961 8 4.79961C10.2088 4.79961 12 6.59065 12 8.79961C12 11.0087 10.2088 12.7996 8 12.7996ZM13.84 6.71849C13.5309 6.71849 13.28 6.46793 13.28 6.15849C13.28 5.84937 13.5309 5.59849 13.84 5.59849C14.1494 5.59849 14.4 5.84937 14.4 6.15849C14.4 6.46793 14.1493 6.71849 13.84 6.71849Z" fill="white"/>
</svg>
