<svg width="16" height="16" viewBox="0 0 16 16" fill="none" xmlns="http://www.w3.org/2000/svg">
<g clip-path="url(#clip0)">
<path d="M7.96502 10.3516C7.1931 10.3516 6.56152 10.9831 6.56152 11.7551V14.5972C6.56152 15.3691 7.1931 16.0007 7.96502 16.0007C8.73695 16.0007 9.36853 15.3691 9.36853 14.5972V11.7551C9.36853 10.9831 8.73698 10.3516 7.96502 10.3516Z" fill="white"/>
<path d="M13.0521 1.75438H10.3503C10.0345 0.736841 9.08719 0 7.96435 0C6.84152 0 5.89417 0.736841 5.57838 1.75438H2.91172C2.52575 1.75438 2.20996 2.07017 2.20996 2.45614C2.20996 2.8421 2.52575 3.15789 2.91172 3.15789H5.61347C5.78891 3.75438 6.17488 4.24561 6.70119 4.56139C4.80645 5.1228 3.40294 6.87718 3.40294 8.94735V12.6316C3.40294 13.2631 3.92926 13.7894 4.56084 13.7894H5.50821V11.7895C5.50821 10.421 6.63102 9.29823 7.99944 9.29823C9.36786 9.29823 10.4907 10.421 10.4907 11.7895V13.7894H11.438C12.0696 13.7894 12.5959 13.2631 12.5959 12.6316V8.98244C12.5959 6.91224 11.1924 5.1228 9.29766 4.59648C9.82397 4.28069 10.2099 3.78947 10.3854 3.19298H13.0871C13.4731 3.19298 13.7889 2.87719 13.7889 2.49122C13.7538 2.07017 13.438 1.75438 13.0521 1.75438ZM7.96435 3.89473C7.19242 3.89473 6.56084 3.26315 6.56084 2.49122C6.56084 1.71929 7.19242 1.08772 7.96435 1.08772C8.73628 1.08772 9.36786 1.71929 9.36786 2.49122C9.40295 3.26315 8.77137 3.89473 7.96435 3.89473Z" fill="white"/>
</g>
<defs>
<clipPath id="clip0">
<rect width="16" height="16" fill="white"/>
</clipPath>
</defs>
</svg>
