<svg width="16" height="16" viewBox="0 0 16 16" fill="none" xmlns="http://www.w3.org/2000/svg">
<path d="M6.24902 13.9969C6.8335 15.1051 7.64099 15.8374 7.68762 15.8791C7.77661 15.9588 7.88843 15.9986 8.00024 15.9986C8.11206 15.9986 8.224 15.9588 8.31299 15.8791C8.35962 15.8374 9.16687 15.1051 9.75134 13.9969C9.06348 13.7233 8.46887 13.3478 8.00024 12.9922C7.53149 13.3478 6.93701 13.7233 6.24902 13.9969Z" fill="white"/>
<path d="M14.9077 9.9375C14.8206 10.0363 14.731 10.1323 14.6387 10.2246C13.7177 11.1455 12.4954 11.8041 11.0055 12.182C10.2142 12.3827 9.48108 12.468 8.92871 12.5023C9.66125 12.9918 10.6548 13.463 11.7655 13.463C14.0284 13.463 15.8054 11.5074 15.88 11.4242C16.0393 11.2462 16.0393 10.9769 15.88 10.799C15.8556 10.7717 15.4957 10.3743 14.9077 9.9375Z" fill="white"/>
<path d="M4.99509 12.1821C3.50522 11.8042 2.28281 11.1456 1.36179 10.2246C1.26938 10.1323 1.1799 10.0364 1.09262 9.9375C0.50473 10.3743 0.144867 10.7719 0.120453 10.799C-0.0388489 10.9769 -0.0388489 11.2463 0.120453 11.4243C0.195038 11.5076 1.97202 13.463 4.23483 13.463C5.34567 13.463 6.33908 12.9918 7.07175 12.5023C6.51938 12.468 5.78622 12.3827 4.99509 12.1821Z" fill="white"/>
<path d="M7.68787 11.4605C7.77686 11.5403 7.88867 11.5802 8.00049 11.5802C8.1123 11.5802 8.22412 11.5403 8.31323 11.4605C8.42822 11.3576 11.1299 8.90269 11.1299 5.79002C11.1299 2.67748 8.42822 0.222534 8.31323 0.119507C8.22424 0.0397948 8.1123 0 8.00049 0C7.88867 0 7.77686 0.0397948 7.68787 0.119507C7.57275 0.222534 4.87109 2.67748 4.87109 5.79002C4.87109 8.90256 7.57288 11.3576 7.68787 11.4605Z" fill="white"/>
<path d="M12.9825 2.41048C12.7552 1.62347 12.5106 1.10845 12.4951 1.07646C12.3917 0.861003 12.1428 0.757973 11.9174 0.837076C11.8839 0.848917 11.3469 1.03984 10.6299 1.4356C10.9402 1.90729 11.2031 2.38729 11.4153 2.86887C11.951 2.66085 12.484 2.51363 12.9825 2.41048Z" fill="white"/>
<path d="M5.37024 1.43563C4.65332 1.03988 4.11633 0.848967 4.08276 0.837126C3.8573 0.757904 3.6084 0.861052 3.505 1.07638C3.48962 1.10848 3.24487 1.62349 3.01758 2.41047C3.51599 2.51349 4.04907 2.66071 4.58484 2.86871C4.797 2.3874 5.05994 1.9073 5.37024 1.43563Z" fill="white"/>
<path d="M12.0672 5.78979C12.0672 6.6156 11.9039 7.46301 11.5818 8.30823C11.3295 8.97058 10.979 9.63403 10.54 10.2804C10.2053 10.7733 9.8667 11.1855 9.58691 11.4978C10.8776 11.3309 12.678 10.8591 13.976 9.56128C16.1769 7.36035 16.0025 3.71399 15.9939 3.55981C15.9807 3.32129 15.7903 3.13086 15.5518 3.11768C15.5307 3.11658 15.4274 3.11133 15.2597 3.11133C14.6525 3.11133 13.2009 3.17871 11.7457 3.74536C11.9592 4.43262 12.0672 5.11829 12.0672 5.78979Z" fill="white"/>
<path d="M6.41357 11.498C6.13379 11.1856 5.79517 10.7734 5.46045 10.2804C5.02148 9.63408 4.6709 8.97062 4.41858 8.30827C4.09656 7.46304 3.93323 6.61563 3.93323 5.78981C3.93323 5.1183 4.04114 4.43263 4.25476 3.74537C2.79956 3.17871 1.34815 3.11133 0.740968 3.11133C0.572999 3.11133 0.469727 3.11646 0.448609 3.11768C0.210084 3.13086 0.0196543 3.32129 0.00647071 3.55982C-0.0020742 3.71399 -0.176513 7.36038 2.02441 9.56133C3.32251 10.8593 5.12293 11.331 6.41357 11.498Z" fill="white"/>
</svg>
