<svg width="16" height="16" viewBox="0 0 16 16" fill="none" xmlns="http://www.w3.org/2000/svg">
<g clip-path="url(#clip0)">
<path d="M0.0839844 5.70508L7.11338 14.4315L3.92491 5.70508H0.0839844Z" fill="white"/>
<path d="M4.55176 5.70508L7.94879 15.0025L11.4126 5.70508H4.55176Z" fill="white"/>
<path d="M8.70508 14.6569L15.9157 5.70508H12.0397L8.70508 14.6569Z" fill="white"/>
<path d="M13.1654 0.998047H8.61816L11.736 4.83545L13.1654 0.998047Z" fill="white"/>
<path d="M11.2059 5.11557L7.99977 1.16992L4.79395 5.11557H11.2059Z" fill="white"/>
<path d="M7.38151 0.998047H2.83105L4.24276 4.86133L7.38151 0.998047Z" fill="white"/>
<path d="M2.34127 1.37109L0 5.11701H3.70973L2.34127 1.37109Z" fill="white"/>
<path d="M15.9997 5.11693L13.6561 1.36719L12.2588 5.11693H15.9997Z" fill="white"/>
</g>
<defs>
<clipPath id="clip0">
<rect width="16" height="16" fill="white"/>
</clipPath>
</defs>
</svg>
