<svg width="16" height="16" viewBox="0 0 16 16" fill="none" xmlns="http://www.w3.org/2000/svg">
<path d="M10.6667 3.46641C11.3333 3.46641 11.8667 2.93307 11.8667 2.26641C11.8667 1.59974 11.3333 1.06641 10.6667 1.06641C10 1.06641 9.46667 1.59974 9.46667 2.26641C9.46667 2.93307 10 3.46641 10.6667 3.46641ZM12.6667 8.26641C10.8 8.26641 9.33333 9.73307 9.33333 11.5997C9.33333 13.4664 10.8 14.9331 12.6667 14.9331C14.5333 14.9331 16 13.4664 16 11.5997C16 9.73305 14.5333 8.26641 12.6667 8.26641ZM12.6667 13.9331C11.4 13.9331 10.3333 12.8664 10.3333 11.5997C10.3333 10.333 11.4 9.26641 12.6667 9.26641C13.9333 9.26641 15 10.333 15 11.5997C15 12.8664 13.9333 13.9331 12.6667 13.9331ZM9.86667 6.93307H12.6667V5.73307H10.5333L9.26667 3.53307C9.06667 3.19974 8.73333 2.99974 8.26667 2.99974C7.93333 2.99974 7.66667 3.13307 7.46667 3.33307L5 5.79974C4.8 5.99974 4.66667 6.26641 4.66667 6.59974C4.66667 6.99974 4.86667 7.39974 5.2 7.59974L7.46667 8.93307V12.2664H8.66667V7.93307L7.2 6.79974L8.73333 5.26641L9.86667 6.93307ZM3.33333 8.26641C1.46667 8.26641 0 9.73307 0 11.5997C0 13.4664 1.46667 14.9331 3.33333 14.9331C5.2 14.9331 6.66667 13.4664 6.66667 11.5997C6.66667 9.73305 5.2 8.26641 3.33333 8.26641ZM3.33333 13.9331C2.06667 13.9331 1 12.8664 1 11.5997C1 10.333 2.06667 9.26641 3.33333 9.26641C4.6 9.26641 5.66667 10.333 5.66667 11.5997C5.66667 12.8664 4.6 13.9331 3.33333 13.9331Z" fill="white"/>
</svg>
