<svg width="16" height="16" viewBox="0 0 16 16" fill="none" xmlns="http://www.w3.org/2000/svg">
<g clip-path="url(#clip0)">
<path d="M1.87988 12.1487L2.33845 14.0015C2.70834 15.3074 5.1774 16.0001 7.99955 16.0001C10.7922 16.0001 13.3236 15.2929 13.6609 14.0015L14.1195 12.1484C12.1658 12.9872 10.0842 13.4161 7.99929 13.4161C5.91486 13.416 3.83326 12.9872 1.87988 12.1487Z" fill="white"/>
<path d="M9.80714 5.30822C9.37208 5.2615 9.04174 4.89444 9.04174 4.45704V4.45577C9.04174 3.90181 9.2103 3.36651 9.52593 2.91132C9.73372 2.61174 9.85545 2.24805 9.85545 1.85596C9.85549 0.830757 9.02473 0 7.99956 0C6.97465 0 6.1436 0.830757 6.1436 1.85592C6.1436 2.24802 6.26537 2.6117 6.47319 2.91129C6.78774 3.36472 6.95731 3.90388 6.95731 4.45574V4.45701C6.95731 4.89544 6.62779 5.2612 6.19195 5.30819C3.39928 5.60963 0.920898 6.60661 0.920898 8.21724C0.920898 8.44055 1.59294 10.9892 1.59294 10.9892C5.63516 12.9668 10.3642 12.9671 14.4064 10.989C14.4064 10.989 15.0782 8.44051 15.0782 8.21724C15.0782 6.60664 12.5998 5.60966 9.80714 5.30822ZM7.99956 1.00912C8.47462 1.00912 8.8598 1.39424 8.8598 1.86937C8.8598 2.34443 8.47462 2.72961 7.99956 2.72961C7.52446 2.72961 7.13932 2.34443 7.13932 1.86937C7.13935 1.39427 7.52446 1.00912 7.99956 1.00912ZM7.99956 6.23338C11.6421 6.23338 13.8788 7.38905 13.8788 8.21727C13.8788 9.04598 11.6422 10.2014 7.99956 10.2014C4.35697 10.2014 2.12028 9.04598 2.12028 8.21727C2.12028 7.38905 4.35697 6.23338 7.99956 6.23338Z" fill="white"/>
</g>
<defs>
<clipPath id="clip0">
<rect width="16" height="16" fill="white"/>
</clipPath>
</defs>
</svg>
