<svg width="16" height="16" viewBox="0 0 16 16" fill="none" xmlns="http://www.w3.org/2000/svg">
<path d="M15.7154 4.91492L14.3924 3.59188L15.3869 2.59767C15.4749 2.50982 15.5243 2.39079 15.5243 2.2663C15.5243 2.1418 15.4749 2.02277 15.387 1.93489L14.0554 0.603283C13.8796 0.427503 13.5683 0.427503 13.3925 0.603283L12.3983 1.59787L11.075 0.274567C10.7089 -0.0915225 10.1154 -0.0915225 9.74923 0.274567C9.38307 0.640657 9.38307 1.23424 9.74923 1.60037L14.3896 6.24072C14.7557 6.60681 15.3493 6.60681 15.7154 6.24072C16.0815 5.87463 16.0815 5.28104 15.7154 4.91492Z" fill="white"/>
<path d="M6.24076 14.3994L1.60042 9.75895C1.23426 9.39285 0.640727 9.39285 0.274571 9.75895C-0.0915235 10.1251 -0.0915235 10.7187 0.274571 11.0848L1.59785 12.4081L0.605196 13.4003C0.517289 13.4882 0.467852 13.6072 0.467852 13.7317C0.467852 13.8562 0.517289 13.9753 0.605196 14.0631L1.93682 15.3943C2.02835 15.4859 2.14829 15.5317 2.26823 15.5317C2.38817 15.5317 2.5081 15.4859 2.59963 15.3944L3.59189 14.4021L4.91495 15.7252C5.28104 16.0913 5.87464 16.0913 6.24076 15.7252C6.60692 15.3591 6.60692 14.7655 6.24076 14.3994Z" fill="white"/>
<path d="M8.42394 5.57812L5.57812 8.43364L7.56688 10.4224L10.4127 7.56682L8.42394 5.57812Z" fill="white"/>
<path d="M14.3899 7.56697L8.42367 1.60074C8.05758 1.23465 7.46395 1.23465 7.09786 1.60074C6.7317 1.9669 6.7317 2.56043 7.09786 2.92659L13.0641 8.89282C13.4302 9.25891 14.0238 9.25891 14.3899 8.89282C14.7561 8.52672 14.7561 7.93313 14.3899 7.56697Z" fill="white"/>
<path d="M8.89283 13.0728L2.92657 7.1066C2.56048 6.74051 1.96688 6.74051 1.60079 7.1066C1.23463 7.47276 1.23463 8.06635 1.60079 8.43244L7.56701 14.3986C7.93311 14.7647 8.5267 14.7647 8.89283 14.3986C9.25898 14.0326 9.25898 13.439 8.89283 13.0728Z" fill="white"/>
</svg>
