<svg width="14" height="16" viewBox="0 0 14 16" fill="none" xmlns="http://www.w3.org/2000/svg">
<path d="M4.45288 6.66885C4.21973 6.66496 4.006 6.53796 3.89137 6.33501L2.8985 4.59766L1.90577 6.33501C1.79027 6.53724 1.57711 6.66396 1.34425 6.66885C1.11153 6.67374 0.893194 6.55608 0.769212 6.35889L0 5.13502L0.733685 12.8138C1.20531 12.0745 2.0217 11.627 2.8985 11.627C3.77544 11.627 4.59183 12.0745 5.06345 12.8138L5.79713 5.13502L5.02792 6.35889C4.90495 6.55709 4.68603 6.67503 4.45288 6.66885V6.66885Z" fill="white"/>
<path d="M4.93624 14.1471L4.94617 14.0429C4.94128 14.0265 4.93797 14.0097 4.93624 13.9926C4.83599 12.9425 3.95387 12.1406 2.89886 12.1406C1.844 12.1406 0.961881 12.9425 0.861487 13.9926C0.859905 14.0096 0.856597 14.0265 0.851562 14.0428L0.861487 14.1471C0.958142 15.1991 1.84242 16.0029 2.89886 15.999C3.95531 16.0029 4.83973 15.1991 4.93624 14.1471V14.1471Z" fill="white"/>
<path d="M10.3276 7.54493C9.27113 7.5412 8.38685 8.34508 8.2902 9.39708C8.28847 9.4142 8.28516 9.43103 8.28027 9.44742L8.2902 9.55156C8.38685 10.6036 9.27113 11.4074 10.3276 11.4037C11.384 11.4074 12.2683 10.6036 12.3649 9.55156L12.3749 9.44742C12.3698 9.43103 12.3665 9.4142 12.3649 9.39708C12.2683 8.34508 11.384 7.5412 10.3276 7.54493V7.54493Z" fill="white"/>
<path d="M13.2259 0.537352L12.4565 1.76121C12.3327 1.95826 12.1143 2.07591 11.8815 2.07102C11.6486 2.06613 11.4354 1.93942 11.3199 1.73733L10.3274 0L9.33463 1.73733C9.21899 1.93942 9.00583 2.06613 8.77311 2.07102C8.54024 2.07591 8.32191 1.95826 8.19792 1.76121L7.42871 0.537352L8.1624 8.21591C8.63402 7.47662 9.45041 7.02916 10.3274 7.02916C11.2043 7.02916 12.0205 7.47662 12.4923 8.21591L13.2259 0.537352Z" fill="white"/>
</svg>
