<svg width="16" height="16" viewBox="0 0 16 16" fill="none" xmlns="http://www.w3.org/2000/svg">
<g clip-path="url(#clip0)">
<path d="M14.9651 1.79584C14.8432 1.75012 14.7613 1.63194 14.7613 1.50175C14.7613 1.37156 14.8432 1.25337 14.9651 1.20765C15.2349 1.10647 15.3716 0.805748 15.2704 0.535935C15.1692 0.266122 14.8684 0.129465 14.5987 0.230622C14.0718 0.428216 13.7178 0.939029 13.7178 1.50175C13.7178 2.06447 14.0717 2.57525 14.5987 2.77288C14.7206 2.8186 14.8025 2.93678 14.8025 3.06697C14.8025 3.19716 14.7206 3.31535 14.5987 3.36106C14.3289 3.46225 14.1921 3.76297 14.2934 4.03278C14.3719 4.24225 14.5707 4.37147 14.782 4.37147C14.8428 4.37147 14.9047 4.36072 14.9651 4.33813C15.492 4.14054 15.846 3.62972 15.846 3.067C15.846 2.50425 15.492 1.99347 14.9651 1.79584Z" fill="white"/>
<path d="M12.3577 1.79584C12.2358 1.75012 12.1539 1.63194 12.1539 1.50175C12.1539 1.37156 12.2358 1.25337 12.3577 1.20765C12.6275 1.10647 12.7642 0.805748 12.663 0.535935C12.5618 0.266122 12.261 0.129465 11.9913 0.230622C11.4644 0.428216 11.1104 0.939029 11.1104 1.50175C11.1104 2.06447 11.4643 2.57525 11.9913 2.77288C12.1132 2.8186 12.195 2.93678 12.195 3.06697C12.195 3.19716 12.1132 3.31535 11.9913 3.36106C11.7214 3.46225 11.5847 3.76297 11.6859 4.03278C11.7645 4.24225 11.9633 4.37147 12.1745 4.37147C12.2354 4.37147 12.2973 4.36072 12.3577 4.33813C12.8845 4.14054 13.2385 3.62972 13.2385 3.067C13.2385 2.50425 12.8845 1.99347 12.3577 1.79584Z" fill="white"/>
<path d="M4.01004 1.79584C3.88813 1.75012 3.80626 1.63194 3.80626 1.50175C3.80626 1.37156 3.88813 1.25337 4.01004 1.20765C4.27985 1.10647 4.41657 0.805748 4.31535 0.535935C4.21419 0.266122 3.91332 0.129465 3.64363 0.230622C3.11673 0.428216 2.7627 0.939029 2.7627 1.50175C2.7627 2.06447 3.11669 2.57525 3.64363 2.77288C3.76554 2.8186 3.84741 2.93678 3.84741 3.06697C3.84741 3.19716 3.76554 3.31535 3.64363 3.36106C3.37382 3.46225 3.2371 3.76297 3.33832 4.03278C3.41685 4.24225 3.61566 4.37147 3.82691 4.37147C3.88779 4.37147 3.94969 4.36072 4.01004 4.33813C4.53691 4.14054 4.89094 3.62972 4.89094 3.067C4.89091 2.50425 4.53691 1.99347 4.01004 1.79584Z" fill="white"/>
<path d="M1.40064 1.7958C1.27873 1.75008 1.19685 1.63189 1.19685 1.5017C1.19685 1.37151 1.27873 1.25333 1.40064 1.20761C1.67045 1.10642 1.80717 0.805701 1.70595 0.535887C1.60479 0.266137 1.30392 0.12948 1.03426 0.230606C0.507352 0.4282 0.15332 0.939013 0.15332 1.50173C0.15332 2.06445 0.507321 2.57524 1.03426 2.77286C1.15617 2.81858 1.23804 2.93677 1.23804 3.06695C1.23804 3.19714 1.15617 3.31533 1.03426 3.36105C0.764447 3.46224 0.627727 3.76296 0.728946 4.03277C0.807478 4.24224 1.00629 4.37146 1.21754 4.37146C1.27842 4.37146 1.34032 4.36071 1.40067 4.33811C1.92754 4.14052 2.28157 3.62971 2.28157 3.06699C2.28154 2.5042 1.92751 1.99342 1.40064 1.7958Z" fill="white"/>
<path d="M15.9487 12.691C15.8244 12.4311 15.513 12.3212 15.2529 12.4456C14.5255 12.7937 13.6564 12.7318 12.9849 12.2842C12.5738 12.0101 12.1189 11.8365 11.6521 11.7625V8.54447H12.6956V10.1097C12.6956 10.9727 13.3977 11.6748 14.2608 11.6748C15.1238 11.6748 15.8259 10.9727 15.8259 10.1097V6.97928C15.8259 6.11621 15.1238 5.41409 14.2608 5.41409H10.0855C10.4137 4.97777 10.6086 4.43571 10.6086 3.8489C10.6086 2.41049 9.43837 1.24023 7.99996 1.24023C6.56155 1.24023 5.3913 2.41049 5.3913 3.8489C5.3913 4.43571 5.58618 4.97777 5.91446 5.41409H1.7392C0.876136 5.41409 0.174009 6.11624 0.174009 6.97928V10.1097C0.174009 10.9727 0.876167 11.6748 1.7392 11.6748C2.60223 11.6748 3.30439 10.9727 3.30439 10.1097V8.54447H4.34786V11.7625C3.88108 11.8366 3.42608 12.0101 3.01502 12.2842C2.34358 12.7318 1.47454 12.7937 0.747042 12.4456C0.487135 12.3212 0.175603 12.4311 0.0512277 12.691C-0.0731475 12.9509 0.0367277 13.2624 0.296666 13.3868C1.35436 13.8929 2.6178 13.8031 3.59383 13.1524C3.97624 12.8975 4.41371 12.7686 4.85192 12.7652C4.85783 12.7654 4.86364 12.7661 4.86958 12.7661C4.87552 12.7661 4.88133 12.7654 4.88724 12.7652C5.32546 12.7686 5.76299 12.8975 6.14533 13.1524C6.70865 13.5279 7.35431 13.7157 7.99993 13.7157C8.64556 13.7157 9.29122 13.5279 9.85453 13.1524C10.2369 12.8975 10.6744 12.7686 11.1127 12.7652C11.1186 12.7654 11.1243 12.7661 11.1303 12.7661C11.1363 12.7661 11.1421 12.7654 11.148 12.7652C11.5863 12.7686 12.0238 12.8975 12.4061 13.1524C13.3822 13.8031 14.6456 13.893 15.7033 13.3868C15.9632 13.2624 16.0731 12.9509 15.9487 12.691ZM7.99996 2.28367C8.86303 2.28367 9.56515 2.98583 9.56515 3.84886C9.56515 4.71193 8.863 5.41406 7.99996 5.41406C7.13693 5.41406 6.43477 4.7119 6.43477 3.84886C6.43477 2.98583 7.13693 2.28367 7.99996 2.28367ZM11.1304 7.501C10.8422 7.501 10.6087 7.73459 10.6087 8.02272V11.7625C10.1419 11.8366 9.6869 12.0102 9.27581 12.2842C8.50074 12.8009 7.49927 12.8009 6.72424 12.2842C6.31315 12.0101 5.85818 11.8366 5.39139 11.7625V8.02272C5.39139 7.73459 5.1578 7.501 4.86968 7.501H2.78264C2.49451 7.501 2.26092 7.73459 2.26092 8.02272V10.1097C2.26092 10.3973 2.02686 10.6314 1.7392 10.6314C1.45151 10.6314 1.21748 10.3973 1.21748 10.1097V6.97928C1.21748 6.69159 1.45154 6.45756 1.7392 6.45756H14.2608C14.5485 6.45756 14.7825 6.69162 14.7825 6.97928V10.1097C14.7825 10.3973 14.5484 10.6314 14.2608 10.6314C13.9731 10.6314 13.7391 10.3973 13.7391 10.1097V8.02272C13.7391 7.73459 13.5055 7.501 13.2173 7.501H11.1304Z" fill="white"/>
<path d="M15.9487 14.7787C15.8244 14.5188 15.513 14.4089 15.2529 14.5333C14.5255 14.8814 13.6565 14.8195 12.985 14.3719C11.8583 13.6208 10.4024 13.6208 9.27578 14.3719C8.50071 14.8886 7.49924 14.8886 6.72421 14.3719C5.59755 13.6209 4.14161 13.6209 3.01502 14.3719C2.34358 14.8196 1.47454 14.8814 0.747042 14.5333C0.487135 14.4089 0.175603 14.5188 0.0512277 14.7787C-0.0731475 15.0387 0.0367277 15.3502 0.296666 15.4745C1.35436 15.9807 2.6178 15.8908 3.59383 15.2401C4.36889 14.7235 5.37036 14.7235 6.14543 15.2401C6.70871 15.6157 7.3544 15.8035 8.00003 15.8035C8.64565 15.8035 9.29131 15.6157 9.85462 15.2401C10.6297 14.7235 11.6312 14.7235 12.4062 15.2401C13.3823 15.8909 14.6457 15.9807 15.7034 15.4745C15.9632 15.3502 16.0731 15.0386 15.9487 14.7787Z" fill="white"/>
</g>
<defs>
<clipPath id="clip0">
<rect width="16" height="16" fill="white"/>
</clipPath>
</defs>
</svg>
