<svg width="63" height="50" viewBox="0 0 63 50" fill="none" xmlns="http://www.w3.org/2000/svg"><g opacity=".8"><path opacity=".8" d="M57.8518 16.8832L45.7427 0L29.3936 21.0849L37.0716 31.7801L57.8518 16.8832Z" fill="#FEDD15"/><path opacity=".8" d="M34.8179 28.6465L27.1399 17.9131L4.94629 49.9988L34.8179 28.6465Z" fill="#FCEE1F"/></g><g opacity=".8"><path opacity=".8" d="M32.1447 6.18856L27.217 2.13965L24.0083 9.66452L27.1406 12.2619L32.1447 6.18856Z" fill="#FEDD15"/><path opacity=".8" d="M26.2239 11.4978L23.0916 8.90039L19.0425 20.1686L26.2239 11.4978Z" fill="#FCEE1F"/></g><path d="M7.35234 35.2557L4.64021 35.7523 4.41101 36.9746 1.81348 37.4712 3.22684 30.5956 6.74115 29.9463 10.5993 35.7905 8.00172 36.287 7.35234 35.2557zM6.43556 33.7278L5.32779 31.9325 4.9458 34.0334 6.43556 33.7278zM12.7385 28.7239C15.2978 28.2274 16.7876 28.8767 17.2459 30.863L14.8394 31.3214C14.6484 30.7484 14.1136 30.5192 13.1204 30.7102 11.7071 30.9776 11.5925 31.6269 11.7071 32.2763 11.8217 32.9638 12.2037 33.4986 13.5788 33.2312 14.572 33.0402 14.9922 32.6583 14.954 32.0089L17.3605 31.5505C17.6279 33.575 16.482 34.7209 13.9608 35.2175 11.1723 35.7522 9.75893 34.9119 9.33874 32.6965 8.95675 30.5574 9.94993 29.2587 12.7385 28.7239zM23.2815 32.2372L20.5694 32.7337 20.3402 33.956 17.7427 34.4526 19.156 27.5771 22.6703 26.9277 26.5284 32.7719 23.9309 33.2685 23.2815 32.2372zM22.3648 30.7093L21.257 28.914 20.875 31.0148 22.3648 30.7093zM33.8245 28.1117C34.2446 30.2889 32.9841 31.5494 31.4561 31.855L26.7194 32.7336 25.4971 26.3546 30.2338 25.4761C31.7617 25.2087 33.4043 25.9726 33.8245 28.1117zM31.4561 28.5701C31.2269 27.3859 30.3865 27.5387 29.89 27.6533L28.2474 27.9589 28.7058 30.3271 30.3483 30.0215C30.8449 29.907 31.6853 29.7542 31.4561 28.5701zM36.7663 26.1651L36.8809 26.7381 41.2356 25.8978 41.5412 27.4256 37.1865 28.266 37.3011 28.8389 41.6558 27.9986 41.9996 29.8321 35.2766 31.0926 34.0542 24.7136 40.7772 23.4531 41.121 25.2866 36.7663 26.1651zM52.6183 27.8447L50.2499 28.303 49.677 25.2854 48.531 28.6468 47.003 28.9524 44.7111 26.2404 45.2841 29.258 42.9157 29.7163 41.6934 23.3374 44.5965 22.8026 47.2322 26.0494 48.4928 22.0387 51.3959 21.5039 52.6183 27.8447zM51.7012 21.4279L54.4133 20.8931 56.5524 22.9176 57.813 20.2437 60.5251 19.709 58.1186 24.5982 58.5006 26.6991 56.1323 27.1575 55.7503 25.0566 51.7012 21.4279zM1.24109 28.2281C1.27929 28.3809 1.43209 28.4191 2.08147 28.3045 2.69266 28.1899 2.80726 28.1517 2.76906 28.0371 2.73086 27.8843 2.65446 27.9225 1.96688 28.0371.744507 28.1899.171521 28.1899.0187252 27.5024-.134071 26.7384.668109 26.4328 1.69948 26.2418 2.69266 26.0509 3.41844 26.0509 3.57124 26.8148L2.46346 27.0058C2.42527 26.853 2.27247 26.8912 1.77588 27.0058 1.2029 27.1204 1.0501 27.1586 1.0883 27.235 1.1265 27.3496 1.2411 27.3114 1.92868 27.235 2.99825 27.0822 3.72403 27.0058 3.83863 27.7315 3.99143 28.5719 3.30384 28.8393 2.27247 29.0303 1.2411 29.2212.324318 29.2594.133322 28.4191L1.24109 28.2281zM8.07866 26.47C8.26965 27.5778 7.54387 28.0361 6.85629 28.1507 6.4361 28.2271 5.97771 28.1889 5.63392 27.9597L5.93951 29.4494 4.83174 29.6404 4.10596 25.7825 5.21373 25.5915 5.29013 25.9735C5.51932 25.6297 5.90131 25.4387 6.3215 25.3241 7.00908 25.2095 7.84946 25.4005 8.07866 26.47zM6.97089 26.6992C6.89449 26.3172 6.5889 26.2409 6.13051 26.3554 5.67212 26.47 5.40472 26.5846 5.48112 27.0048 5.55752 27.3868 5.86311 27.4632 6.3215 27.3486 6.81809 27.234 7.04728 27.0812 6.97089 26.6992zM8.6136 26.393C8.42261 25.3998 9.03379 24.8651 10.218 24.6359 11.3639 24.4067 12.1279 24.6741 12.3189 25.7054 12.5099 26.6985 11.8987 27.2333 10.7146 27.4625 9.56858 27.6535 8.8046 27.3861 8.6136 26.393zM11.2493 25.8964C11.1729 25.5144 10.8673 25.438 10.409 25.5526 9.91237 25.629 9.68318 25.7818 9.75958 26.202 9.83597 26.584 10.1416 26.6604 10.6 26.5458 11.0583 26.4312 11.3257 26.2784 11.2493 25.8964zM15.5276 23.6826L15.7186 24.5994C15.4512 24.5994 15.2602 24.5994 15.031 24.6375 14.6491 24.7139 14.2289 24.8285 13.9997 25.2487L14.2671 26.7384 13.1593 26.9294 12.6245 24.2174 13.7323 24.0264 13.8087 24.4848C13.9997 24.0646 14.3435 23.8736 14.7637 23.7972 15.1074 23.6826 15.3366 23.6826 15.5276 23.6826zM17.8961 24.1405L18.0107 24.7135C18.0489 24.9809 18.2016 25.0955 18.5072 25.0191 18.7364 24.9809 18.8892 24.9427 19.1948 24.8281L19.3476 25.7066C19.0802 25.783 18.7746 25.8976 18.4308 25.9358 17.5905 26.0886 17.1321 25.8976 17.0175 25.3247L16.8265 24.2933 16.2535 24.4461 16.0625 23.5676 16.5973 23.453 16.5209 22.9946 17.5523 22.498 17.7051 23.2238 18.8128 22.9946 19.0038 23.9113 17.8961 24.1405zM45.3224 30.8247C46.392 30.6338 47.156 30.8247 47.3852 31.6651L46.2774 31.8943C46.1628 31.6651 45.8954 31.6651 45.4752 31.7415 44.9786 31.8179 44.7494 31.9707 44.8258 32.3908 44.9022 32.7728 45.2078 32.8492 45.6662 32.7346 46.0482 32.6582 46.3156 32.5436 46.3538 32.3144L47.4616 32.0853C47.5379 32.9638 46.9268 33.4222 45.8572 33.6514 44.7112 33.8805 43.9472 33.6132 43.7563 32.5818 43.5653 31.5505 44.1764 31.0157 45.3224 30.8247zM51.5103 31.092L51.7777 32.4289 50.6699 32.6199 50.5935 32.2762C50.2115 32.6581 49.7531 32.8109 49.2947 32.9255 48.6835 33.0401 48.0723 32.9255 47.9577 32.3525 47.8049 31.6268 48.6071 31.3212 49.4093 31.1684 49.7913 31.092 50.0969 31.092 50.3643 31.1302 50.2879 30.7865 49.9441 30.8628 49.6003 30.9392 49.2565 31.0156 48.8745 31.1302 48.3779 31.3212L47.8813 30.6337C48.3779 30.3663 48.9509 30.1371 49.4857 30.0607 50.5935 29.8315 51.3193 30.0607 51.5103 31.092zM50.4789 31.665C50.2879 31.665 50.0587 31.665 49.7531 31.7414 49.2565 31.856 49.0273 31.9324 49.0655 32.0852 49.1037 32.238 49.2183 32.238 49.4857 32.1616 49.8677 32.0852 50.2497 31.9324 50.4789 31.7414V31.665zM57.8516 29.6012L58.1572 31.2437 57.0494 31.4346 56.8202 30.2887C56.7438 29.8304 56.5528 29.6394 56.1708 29.7158 55.9034 29.754 55.6742 29.9449 55.4833 30.2123L55.7888 31.702 54.6811 31.893 54.4519 30.7471C54.3755 30.2887 54.1845 30.0977 53.8025 30.1741 53.5351 30.2123 53.3059 30.4033 53.1149 30.6707L53.3823 32.1604 52.2745 32.3514 51.7397 29.6394 52.8475 29.4484 52.9239 29.9067C53.1149 29.6394 53.3823 29.2956 54.0699 29.181 54.4137 29.1046 54.8721 29.1428 55.1395 29.4866 55.3687 29.1428 55.7506 28.8372 56.4 28.7226 56.973 28.608 57.6606 28.6844 57.8516 29.6012zM62.2448 29.0675C62.4358 30.1752 61.71 30.6336 61.0224 30.7482 60.6022 30.8246 60.1438 30.7864 59.8 30.5572L60.0674 32.0469 58.9597 32.2379 58.2339 28.3799 59.3417 28.1889 59.4181 28.5709C59.6473 28.2271 60.0292 28.0362 60.4494 27.9216 61.1752 27.807 62.0156 27.9598 62.2448 29.0675zM61.137 29.2585C61.0606 28.8765 60.755 28.8001 60.2966 28.9147 59.8 28.9911 59.5709 29.1439 59.6473 29.564 59.7237 29.946 60.0292 30.0224 60.4876 29.9078 60.9842 29.8314 61.2134 29.6786 61.137 29.2585z" fill="#fff"/></svg>