<svg width="106" height="106" viewBox="0 0 106 106" fill="none" xmlns="http://www.w3.org/2000/svg">
<path fill-rule="evenodd" clip-rule="evenodd" d="M25.8925 43.0851C26.0571 43.2763 26.2139 43.4482 26.3593 43.5989C26.1116 43.8239 25.8687 44.0524 25.6308 44.2841C25.4526 44.4576 25.2771 44.633 25.1044 44.8101C14.6505 55.5306 14.2636 72.7164 24.5102 83.994C35.1522 95.7067 53.234 96.6113 64.8972 86.0144C68.3394 82.8868 70.822 79.058 72.3343 74.9187C72.4663 74.5573 72.5909 74.1935 72.7082 73.8276C75.7281 73.2034 78.7354 71.9452 81.4534 69.7619C90.6462 62.3773 93.2238 54.4298 93.3634 51.3791C94.4283 47.6894 94.6428 37.9367 86.9815 28.4437C85.1846 26.2451 80.6201 21.6412 76.7365 20.8143L66.1339 44.9657C66.0779 44.9077 66.0218 44.8499 65.9656 44.7925C65.5159 44.3322 65.0637 43.8901 64.6079 43.4665C61.063 40.1718 57.3052 37.9875 52.8925 36.9362C52.1749 36.7653 51.4399 36.6243 50.6857 36.5134C51.1824 35.8717 51.6525 35.2762 52.098 34.7226C54.4567 31.7916 56.1267 30.034 57.3991 28.8025C57.9435 28.2756 58.4151 27.845 58.8367 27.4601C59.7973 26.5831 60.4985 25.9429 61.2097 24.9403C60.3926 25.5495 58.7582 26.3734 56.3788 27.0104C53.3552 27.8199 49.1286 28.3275 43.8476 27.7093C35.1923 26.6961 27.0898 32.305 23.3303 35.9581C22.9908 36.2879 22.6868 36.6018 22.4209 36.8935C22.7037 37.8171 23.0805 38.7001 23.5003 39.5144C24.1913 40.8545 24.9988 42.0086 25.6952 42.8511C25.762 42.932 25.8279 43.01 25.8925 43.0851ZM28.5866 43.0266C28.7024 42.9359 28.8187 42.8463 28.9355 42.7578C32.3915 43.9925 37.5394 44.3181 42.3699 42.4151C44.9804 41.3866 47.4712 39.9791 49.7689 38.4L50.3947 38.4921C55.8556 39.2953 60.2472 41.8057 64.5196 46.1743L53.3584 71.9011L54.2113 72.3227C57.4661 73.9314 63.5933 75.8023 70.0711 75.2231C68.6445 78.6905 66.4684 81.8845 63.5522 84.5341C52.7125 94.3828 35.895 93.5502 25.9905 82.649C16.3124 71.9971 16.8345 55.6938 26.9766 45.7653L30.065 49.1645L28.9903 50.141L30.3352 51.6212L33.7999 48.4733L32.455 46.993L31.5453 47.8196L28.4443 44.4067L29.2298 43.693L28.5866 43.0266ZM70.8321 73.1284L71.1599 72.1053L72.3034 71.869C75.0544 71.3004 77.7608 70.1627 80.2008 68.2027C89.0244 61.1148 91.2564 53.6715 91.3655 51.2877L91.3763 51.0516L91.4418 50.8245C92.3362 47.7258 92.6531 38.6597 85.4295 29.7053C84.6029 28.6944 83.1048 27.0914 81.3678 25.6566C80.1569 24.6563 78.9391 23.8299 77.8277 23.3042L76.7611 25.7336C79.2034 27.1722 81.301 29.1563 82.9791 31.1296C85.0539 33.5693 86.5405 36.0551 87.2859 37.6311C88.636 40.432 90.4099 47.7759 87.1561 55.5218C83.9097 63.2499 77.3397 67.1093 74.3292 68.1124C71.4727 69.2773 64.4069 70.6557 57.4022 67.6052L55.96 70.9294C59.3199 72.3933 65.0133 73.8816 70.8321 73.1284ZM58.1982 65.7703C63.928 68.2655 69.7362 67.4995 72.6764 66.5797L65.6521 48.589L58.1982 65.7703ZM67.5189 47.8714L74.5518 65.884C77.3035 64.6886 82.139 61.4662 84.9126 55.6395L67.5189 47.8714ZM85.686 53.7945C87.8964 47.7408 86.8688 42.0936 85.8389 39.3397L68.3141 46.0361L85.686 53.7945ZM68.8837 43.6774L84.9859 37.5246C84.2232 36.1269 83.0206 34.2656 81.4556 32.4253C79.9134 30.6119 78.0519 28.8574 75.9508 27.5794L68.8837 43.6774ZM47.2791 37.6473L49.1041 35.2893C51.0381 32.7903 52.5865 30.9681 53.8599 29.5783C51.012 30.0221 47.5741 30.1592 43.6151 29.6958C39.4341 29.2063 35.2945 30.4544 31.7332 32.3351C28.7565 33.907 26.2998 35.8608 24.7219 37.3945C24.8428 37.6908 24.9731 37.9807 25.1102 38.2628C26.1694 39.1554 27.532 40.0435 29.155 40.7017C32.1557 41.9187 37.0602 42.3573 41.6368 40.5543C43.5838 39.7872 45.4767 38.7874 47.2791 37.6473Z" fill="#FDD835"/>
</svg>
