<svg width="111" height="98" viewBox="0 0 111 98" fill="none" xmlns="http://www.w3.org/2000/svg">
<path fill-rule="evenodd" clip-rule="evenodd" d="M98.9741 23.4225C99.9621 24.826 100.281 26.4281 100.274 27.5105L100.271 27.9932L99.8906 28.2909C99.51 28.5889 99.1864 29.1252 98.9978 29.973C98.8103 30.8158 98.777 31.8816 98.9048 33.1037C99.1604 35.5462 100.042 38.4454 101.355 41.0759C102.525 43.4197 103.003 46.1499 103.143 48.5636C103.283 50.9837 103.089 53.1648 102.858 54.462L102.849 54.5095L102.836 54.5559C98.4676 70.1885 84.5274 79.4228 78.0526 82.129C72.1247 85.1714 56.5437 89.7616 40.8487 84.1254C25.3354 78.5545 21.1979 67.6102 21.1287 62.3225L20.4516 61.0365C13.3999 54.5497 11.3818 45.0403 11.2058 40.6012L9.57058 39.2422L10.2959 38.4678C10.7291 38.0052 11.8675 36.876 13.0307 35.9875C13.945 35.2892 14.9851 35.3735 15.751 35.6271C16.1253 35.7511 16.4735 35.9259 16.7765 36.1137C16.4538 35.1594 16.2758 34.0137 16.4412 32.7381C16.7299 30.5124 15.8093 29.1707 15.4936 28.8794L15.3378 28.7355L15.2538 28.5409C14.6251 27.0846 15.2816 25.765 16.0265 24.8871C16.7798 23.9992 17.8032 23.3231 18.5168 22.9606L18.9357 22.7479L19.367 22.9345C20.2143 23.3014 22.6159 24.2324 25.2679 24.943C26.1137 25.1696 27.3175 25.8418 28.6128 26.6663C29.9485 27.5166 31.5044 28.6108 33.0969 29.7837C36.2577 32.1115 39.6055 34.7806 41.7465 36.5471C49.5765 41.3848 55.357 43.0554 60.6252 43.0303C65.9482 43.005 70.8572 41.2563 77.0353 39.0018C83.0673 36.8005 85.3147 34.4335 86.1387 32.6459C86.8076 31.1949 86.6294 30.0404 86.4873 29.1194C86.451 28.8842 86.417 28.6643 86.4002 28.4585C86.3242 27.5327 86.4642 25.522 87.4377 23.7553C87.9343 22.8542 88.663 21.9902 89.7137 21.3884C90.7696 20.7836 92.0835 20.4823 93.6817 20.6035C96.2667 20.7995 97.957 21.9777 98.9741 23.4225ZM19.5902 37.1504C20.542 37.5101 21.9361 38.0957 23.3057 38.7898C24.7551 39.5243 26.3006 40.4408 27.2174 41.3993C27.3618 41.5503 27.7225 41.8217 28.3619 42.1983C28.9768 42.5604 29.781 42.9807 30.7461 43.4396C32.6749 44.3566 35.2059 45.4088 38.0685 46.4392C43.8037 48.5037 50.7949 50.4538 56.8752 51.0723C60.5486 51.446 68.8444 50.7833 79.9534 41.9865C82.4178 40.0351 84.195 38.2555 85.4589 36.6819C83.7966 38.1328 81.329 39.5638 77.7209 40.8806C71.6026 43.1133 66.365 45.0031 60.6348 45.0303C54.8627 45.0578 48.6991 43.2032 40.6362 38.212L40.5783 38.1762L40.5258 38.1328C38.4071 36.3832 35.0601 33.7133 31.9109 31.3941C30.3355 30.2338 28.8203 29.1693 27.5388 28.3535C26.2168 27.5119 25.2572 27.0107 24.7502 26.8748C22.3651 26.2358 20.1779 25.4277 19.0316 24.9619C18.5364 25.2614 17.9671 25.6913 17.5515 26.181C17.0727 26.7454 16.9348 27.2056 17.039 27.601C17.8163 28.4573 18.767 30.3553 18.4246 32.9954C18.1668 34.9832 19.0586 36.5342 19.5902 37.1504ZM88.4578 27.0022C88.5589 26.3032 88.7756 25.4715 89.1894 24.7206C89.548 24.0698 90.0391 23.5069 90.7077 23.1239C91.3711 22.7439 92.2759 22.5026 93.5305 22.5977C95.51 22.7479 96.6599 23.6095 97.3387 24.5738C97.7201 25.1155 97.9634 25.7067 98.106 26.2527C95.1335 25.8656 92.8947 26.8923 91.5926 27.9613C91.3951 27.772 91.169 27.5988 90.9157 27.4668C90.5327 27.2674 90.0432 27.1415 89.5032 27.2613C89.406 27.2829 89.3116 27.3114 89.2201 27.3464C89.163 27.2999 89.1014 27.2562 89.0351 27.216C88.8448 27.1007 88.6512 27.0321 88.4578 27.0022ZM90.2136 29.4098C90.4623 30.6247 90.2747 32.2512 89.4198 34.1391C88.2505 36.7212 85.791 39.9151 81.195 43.5545C69.7173 52.6432 60.912 53.4932 56.6728 53.062C50.3674 52.4206 43.2058 50.4141 37.3911 48.321C34.4788 47.2727 31.8857 46.1959 29.8873 45.2458C28.8889 44.7711 28.0287 44.3232 27.3469 43.9216C26.6896 43.5345 26.1211 43.1467 25.7721 42.7817C25.1101 42.0896 23.8357 41.3006 22.4016 40.5738C21.0211 39.8742 19.6069 39.2882 18.7187 38.9597L16.3735 38.3313L16.1927 38.1651C15.9609 37.952 15.5488 37.6669 15.1223 37.5257C14.7027 37.3868 14.4353 37.4313 14.2447 37.5769C13.621 38.0533 12.9941 38.6171 12.5074 39.0824L13.1885 39.6484L13.1936 40.1108C13.2362 43.951 15.0042 53.1415 21.5874 59.3612C22.0779 58.3271 23.0379 57.4267 24.6233 57.3694L24.8054 57.3628L24.9781 57.4209C28.1716 58.4949 33.2974 60.114 38.2841 61.4774C43.3157 62.8532 48.0684 63.9288 50.5886 63.9822C51.1198 63.9934 51.7007 64.0167 52.3261 64.0418C55.7224 64.1781 60.429 64.3669 65.5947 62.9623C71.6572 61.3138 78.3705 57.4519 84.0812 48.5475L84.1152 48.4944L84.1556 48.4461C85.6109 46.7045 87.6947 43.6399 89.1651 40.1693C90.6279 36.7165 91.416 33.0218 90.5652 29.8605C90.4982 29.749 90.4131 29.6283 90.3166 29.5184C90.2812 29.478 90.2467 29.4419 90.2136 29.4098ZM92.5966 29.7414C93.4495 33.4329 92.4825 37.4659 91.0066 40.9495C89.4621 44.5952 87.291 47.8023 85.7308 49.6799C79.7511 58.9776 72.6325 63.1212 66.1195 64.8922C60.6278 66.3855 55.5791 66.1784 52.1925 66.0395C51.5886 66.0147 51.0375 65.9921 50.5462 65.9817C47.7364 65.9222 42.7427 64.7699 37.7566 63.4066C32.8232 62.0578 27.7628 60.4633 24.5305 59.3803C23.9253 59.4498 23.6018 59.7758 23.3902 60.2272C23.1299 60.7827 23.0765 61.4948 23.1238 61.9774L23.1292 62.0324L23.1285 62.0876C23.0741 66.374 26.5157 76.8533 41.5246 82.2431C56.5787 87.6491 71.6022 83.2047 77.1725 80.3326L77.2089 80.3138L77.2468 80.2981C83.3909 77.7428 96.7327 68.8833 100.897 54.0646C101.097 52.9127 101.276 50.9123 101.146 48.6794C101.015 46.4094 100.569 43.9781 99.5657 41.9692C98.1628 39.1588 97.1999 36.0285 96.9157 33.3118C96.7737 31.9543 96.7965 30.658 97.0456 29.5387C97.1498 29.0701 97.2974 28.6172 97.4982 28.1989C95.038 27.9882 93.3631 28.9985 92.5966 29.7414Z" fill="#FDD835"/>
</svg>
