<svg width="97" height="142" viewBox="0 0 97 142" fill="none" xmlns="http://www.w3.org/2000/svg">
<path fill-rule="evenodd" clip-rule="evenodd" d="M90.8907 60.8481C90.4286 60.513 89.9643 60.1838 89.4982 59.8605C66.8696 44.1622 39.7556 42.1879 27.4021 43.2622C26.8565 43.3097 26.3398 43.3631 25.8535 43.4215C18.2941 48.3283 11.8217 55.3774 7.31018 64.0002C7.15225 64.3021 6.99672 64.6059 6.84363 64.9116C5.10116 68.3909 3.67486 72.117 2.62001 76.0537C1.13822 81.5838 0.499109 87.1203 0.619808 92.5002C0.630909 92.9951 0.648442 93.4886 0.672336 93.9807C1.7174 115.503 14.9363 134.248 34.9342 139.606C55.128 145.017 76.1609 135.15 87.7591 116.689C88.0056 116.297 88.2479 115.9 88.4858 115.5C91.1478 111.023 93.2637 106.068 94.6954 100.725C95.8349 96.4726 96.4761 92.2161 96.6566 88.03C96.6714 87.6863 96.6831 87.343 96.6918 87.0002C96.9281 77.6159 94.8517 68.6178 90.8907 60.8481ZM94.7039 86.3733C94.832 77.6957 92.9117 69.3943 89.3246 62.1848C89.1715 62.0752 89.0182 61.9663 88.8646 61.858C82.1966 61.8075 72.1113 60.9807 61.2027 58.6456C49.7173 56.1871 37.2517 52.0426 26.8908 45.319C26.7767 45.3305 26.6641 45.3423 26.553 45.3545C19.6129 49.9535 13.6318 56.4546 9.37072 64.3835C40.1343 88.8641 77.8498 89.4209 94.7039 86.3733ZM8.43866 66.1968C6.84404 69.4439 5.53233 72.9122 4.55186 76.5714C3.11933 81.9176 2.50285 87.2647 2.6193 92.4554C2.62424 92.6752 2.63048 92.8947 2.63802 93.1139C15.9903 106.231 32.6963 112.615 48.3408 115.226C63.477 117.753 77.5573 116.736 86.508 114.909C86.5948 114.766 86.6811 114.622 86.7667 114.478C89.3352 110.158 91.3794 105.373 92.7635 100.208C93.8223 96.2564 94.4352 92.3048 94.636 88.4163C77.2403 91.4379 39.4607 90.6873 8.43866 66.1968ZM85.019 117.228C75.8258 118.862 62.3816 119.598 48.0115 117.199C32.6935 114.642 16.262 108.513 2.81816 96.0501C4.57571 115.915 17.0917 132.755 35.4518 137.675C54.078 142.665 73.6311 134.023 85.019 117.228ZM30.2998 45.0823C39.8992 50.7892 51.1236 54.4429 61.6213 56.6899C70.809 58.6566 79.3958 59.5366 85.7746 59.784C65.7471 46.9972 42.7488 44.5653 30.2998 45.0823Z" fill="#FDD835"/>
<path fill-rule="evenodd" clip-rule="evenodd" d="M34.7674 0.526855L60.7117 12.4754L51.97 18.3045L36.7423 19.1026L38.382 50.389L36.3847 50.4937L34.7451 19.2073L19.5174 20.0053L10.2142 15.1219L34.7674 0.526855ZM36.6376 17.1053L49.2369 16.445L35.9546 4.07249L36.6376 17.1053ZM40.066 5.16901L51.7466 16.0496L56.6263 12.7958L40.066 5.16901ZM29.9831 5.69743L14.3108 15.0134L19.5038 17.7394L29.9831 5.69743ZM22.0412 17.8703L34.6404 17.21L33.9574 4.17716L22.0412 17.8703Z" fill="#FDD835"/>
<path fill-rule="evenodd" clip-rule="evenodd" d="M75.4892 36.082C76.0327 35.332 77.0244 34.2634 78.2335 33.4853C79.4771 32.685 80.8097 32.2773 82.0846 32.6188L94.5147 35.9495L95.0324 34.0177L82.6022 30.687C80.5623 30.1404 78.6355 30.8483 77.1512 31.8034C75.6611 32.7624 74.4748 34.0567 73.8215 34.9755L73.7829 35.0299L61.7008 57.9657L63.4703 58.8979L75.4892 36.082Z" fill="#FDD835"/>
</svg>
