<svg width="161" height="211" viewBox="0 0 161 211" fill="none" xmlns="http://www.w3.org/2000/svg">
<path fill-rule="evenodd" clip-rule="evenodd" d="M70.7603 85.2347L70.6967 85.203C70.3089 85.0104 69.9057 84.8246 69.4886 84.6453C63.2649 81.9708 54.2726 80.9005 48.381 80.5975L49.0178 81.4252L45.0505 81.4997C42.4496 81.5485 38.2101 81.9441 34.065 82.9674C33.0446 83.2192 32.0535 83.5036 31.1089 83.821C39.7671 84.0755 51.5894 86.7826 61.8347 95.7363C64.836 92.8877 68.2836 90.5193 72.147 88.7464C72.1795 87.7475 72.2599 86.7545 72.3823 85.7708L70.7603 85.2347ZM72.6903 83.7662C74.4395 74.1829 79.9077 65.6139 83.5968 61.1535L83.5388 60.7687C83.0411 57.4693 82.8029 51.974 83.6486 45.9914C84.0563 43.1075 84.7214 40.0703 85.7522 37.0903C85.2538 37.6019 84.756 38.1344 84.2643 38.6861C81.0212 42.3249 78.1829 46.6429 77.0854 51.1174L75.3917 58.023L74.363 54.788C72.2061 60.1562 69.8374 68.485 70.1979 76.6199C70.2604 78.0307 70.4049 79.4323 70.6457 80.8089L70.6537 80.8544L70.8321 83.0529C71.0657 83.1594 71.2959 83.2685 71.5222 83.3801L72.6903 83.7662ZM68.7564 82.2016L68.6676 81.1077C68.453 79.8698 68.3121 78.6191 68.2347 77.3663L67.0464 76.9123L47.3296 67.5877L47.5376 68.3916L43.9664 67.0937C40.9649 66.0029 36.0305 64.4897 31.0554 63.5182C29.2142 63.1586 27.3888 62.8776 25.6685 62.7173C27.8687 63.872 30.2445 65.208 32.6131 66.6776C37.8711 69.94 43.2887 73.9794 46.598 78.2804L46.7904 78.5304C52.2358 78.6969 61.6881 79.5891 68.7564 82.2016ZM21.0376 62.6314C19.8539 62.0657 18.7834 61.5825 17.8718 61.1937C18.8989 60.8598 20.1019 60.6719 21.4246 60.6012C27.4638 60.2782 35.9987 62.3968 41.678 64.206C42.7918 64.5608 43.7957 64.9037 44.6495 65.214C44.4973 64.6258 43.8259 63.6541 42.856 62.4843C41.4611 60.8017 39.4489 58.7094 37.4762 56.7591C35.8202 55.1219 34.192 53.5847 32.9803 52.4742C34.3553 53.2645 36.9336 54.5958 38.51 54.9699C38.9868 55.0831 39.372 55.1086 39.6044 55.0051C40.3631 54.6673 43.6709 56.0568 46.3572 57.331C47.2151 57.7379 48.0095 58.133 48.6374 58.4564C48.6596 57.9733 48.4157 57.0836 47.9645 55.8843C45.9696 50.5817 39.9234 39.2285 34.9212 30.2245C33.4312 27.5427 32.0339 25.0692 30.8638 23.0261L55.4066 48.966C55.3462 47.9453 55.309 46.9327 55.2915 45.9344C55.1988 40.6225 55.6666 35.7169 56.1903 32.1718C56.4669 30.2993 56.759 28.8064 56.9924 27.8336C57.269 29.1496 57.7117 30.5551 58.2449 31.9607C59.1779 34.4208 60.3878 36.8814 61.4683 38.8636C62.1642 40.1402 62.8064 41.2184 63.2864 41.9702C63.3259 40.7745 63.4042 39.5944 63.5154 38.4345C64.25 30.7775 66.4229 24.0013 68.3741 19.4167C69.2269 17.4128 70.0374 15.8276 70.6668 14.7705C70.4874 16.4172 70.392 18.1177 70.3664 19.8454C70.2196 29.7533 72.3696 40.553 74.1425 47.1889C74.4984 48.521 74.8391 49.6853 75.143 50.641C75.4197 49.5128 75.7944 48.4012 76.2479 47.3127C78.7318 41.3508 83.5812 36.0787 87.6558 32.5496C89.3285 31.1008 90.8706 29.9457 92.0648 29.1572C90.983 30.6173 90.0575 32.1788 89.2685 33.8007C85.3078 41.9429 84.7884 51.6085 85.2107 57.6107C85.2869 58.6933 85.3936 59.6566 85.5164 60.4704C86.0929 59.6942 86.6789 58.9595 87.2692 58.2649C90.5479 54.4077 93.9626 51.7897 96.649 50.1761C98.3025 49.1829 99.6802 48.5702 100.58 48.2833C99.6636 49.4137 98.8195 50.5457 98.0424 51.6758C89.0849 64.7009 89.016 77.4554 88.9792 84.2689C88.9773 84.6282 88.9754 84.9713 88.9724 85.2966C88.9705 85.4938 88.9682 85.6847 88.9652 85.8689C88.9628 86.0156 88.9599 86.1582 88.9564 86.2965C89.0807 86.2991 89.2051 86.3022 89.3295 86.3059C107.27 86.8427 125.696 99.5058 135.823 119.758C135.912 119.936 136 120.114 136.088 120.293C136.468 121.07 136.836 121.858 137.191 122.656C149.869 151.13 141.66 182.444 118.855 192.597C96.0511 202.75 67.2874 187.898 54.6099 159.423C44.781 137.347 47.5071 113.565 59.8559 99.2596C60.2807 98.7674 60.7169 98.2865 61.1644 97.8173C60.6646 97.3639 60.1606 96.9264 59.6529 96.5044C48.0074 86.8238 34.4449 85.2793 26.4504 85.9279C24.9708 86.048 23.682 86.2432 22.6313 86.4758C23.4884 85.5273 24.5759 84.6988 25.8154 83.977C30.623 81.1775 37.7172 79.9839 42.5252 79.622C43.4498 79.5524 44.2899 79.5136 45.013 79.5C44.5131 78.8503 43.9584 78.2038 43.3578 77.5628C37.5912 71.4086 27.5829 65.7592 21.0376 62.6314ZM63.3264 97.0783L64.0268 97.7138L62.6118 99.1976C61.7062 100.147 60.8481 101.149 60.0389 102.198C65.1855 104.495 72.3919 107.368 80.5812 110.109C84.1103 102.527 86.8795 95.0121 88.1652 88.2807L86.9063 88.2548L86.9302 87.3075C82.3491 87.4534 77.8332 88.4303 73.5344 90.3159C73.4738 90.3425 73.4132 90.3692 73.3527 90.3962C69.5946 92.0694 66.2429 94.3337 63.3264 97.0783ZM86.9719 85.3053C86.9749 84.9739 86.9765 84.6224 86.9782 84.2519C87.0067 78.1003 87.0595 66.6843 93.8829 54.5682C91.7117 56.3311 89.3487 58.6646 87.122 61.6629L84.2558 65.5222L84.0051 63.86C80.4084 68.6033 75.7628 76.5828 74.4747 85.2297C74.3438 86.1081 74.2478 86.9924 74.191 87.8799C78.3241 86.2692 82.6254 85.4323 86.9719 85.3053ZM90.1883 88.3437C88.9016 95.2962 86.0772 103.011 82.4933 110.741C86.1348 111.927 89.9482 113.078 93.8435 114.134C95.1606 114.491 96.4861 114.837 97.8165 115.17C100.849 107.771 103.429 100.01 105.25 92.071C100.325 89.8933 95.2298 88.6169 90.1883 88.3437ZM107.103 92.9367C105.285 100.742 102.75 108.37 99.7807 115.65C105.173 116.939 110.619 117.992 115.895 118.665C117.854 113.172 119.42 107.665 120.443 102.261C116.315 98.3899 111.801 95.2512 107.103 92.9367ZM122.153 103.93C121.141 108.884 119.696 113.904 117.931 118.906C123.353 119.499 128.561 119.663 133.305 119.236C130.215 113.395 126.417 108.256 122.153 103.93ZM133.699 121.208C128.605 121.687 123.018 121.498 117.232 120.841C115.254 126.194 112.925 131.514 110.382 136.695C116.016 137.698 121.676 138.437 127.218 138.805C129.531 133.248 131.721 127.371 133.699 121.208ZM126.397 140.753C120.802 140.352 115.106 139.585 109.455 138.561C107.235 142.968 104.871 147.264 102.45 151.384C102.009 152.134 101.565 152.879 101.121 153.618C107.444 154.685 113.578 155.437 119.246 155.943C121.684 151.216 124.095 146.142 126.397 140.753ZM121.401 156.125C123.83 151.375 126.227 146.284 128.513 140.887C132.587 141.112 136.597 141.133 140.486 140.91C141.297 146.361 141.369 151.71 140.76 156.789C135.748 156.899 129.052 156.738 121.401 156.125ZM118.246 157.86C112.522 157.33 106.351 156.551 100.003 155.457C96.7264 160.798 93.3921 165.794 90.2037 170.29C90.4722 170.355 90.7413 170.42 91.011 170.485C96.7892 171.872 102.82 173.091 108.861 173.987C111.896 169.25 115.084 163.85 118.246 157.86ZM111.036 174.295C114.08 169.5 117.26 164.062 120.405 158.051C128.309 158.711 135.255 158.896 140.482 158.795C139.529 164.843 137.591 170.463 134.77 175.353C127.289 175.874 119.18 175.395 111.036 174.295ZM107.666 175.829C101.851 174.936 96.0726 173.757 90.5441 172.43C90.0106 172.302 89.4794 172.172 88.9505 172.041C85.0636 177.428 81.4402 182.018 78.4633 185.52C83.6763 189.043 89.2608 191.508 94.9058 192.779C98.0943 189.268 102.631 183.501 107.666 175.829ZM97.1866 193.227C100.493 189.464 104.959 183.67 109.845 176.15C117.894 177.282 125.962 177.833 133.487 177.436C129.635 183.289 124.42 187.93 118.042 190.77C111.476 193.693 104.316 194.423 97.1866 193.227ZM76.8199 184.365C79.6662 181.026 83.1314 176.652 86.8623 171.515C80.6508 169.922 74.8166 168.17 69.678 166.465C67.8251 168.761 66.1182 170.749 64.62 172.392C68.2505 177.106 72.3841 181.126 76.8199 184.365ZM63.4021 170.758C64.6845 169.34 66.1151 167.675 67.6553 165.785C64.0878 164.567 60.9042 163.388 58.2237 162.325C59.7771 165.325 61.5136 168.141 63.4021 170.758ZM56.9015 159.631C60.0671 160.945 64.1917 162.504 68.9894 164.126C71.9948 160.339 75.3486 155.784 78.7941 150.613C73.276 149.002 67.8418 147.101 62.6657 144.863C59.85 148.967 57.2395 152.539 55.0791 155.34C55.5005 156.432 55.953 157.523 56.437 158.61C56.5895 158.953 56.7444 159.293 56.9015 159.631ZM54.2644 153.113C56.1862 150.583 58.4179 147.509 60.8052 144.039C57.4077 142.497 54.1336 140.805 51.034 138.949C51.5585 143.619 52.6235 148.377 54.2644 153.113ZM50.8051 136.466C54.2962 138.643 58.0379 140.602 61.9503 142.362C64.8778 138.041 67.9953 133.183 71.0336 128.05C63.3345 125.293 56.726 122.539 51.8842 120.286C50.7817 125.388 50.4009 130.847 50.8051 136.466ZM52.3549 118.299C57.2439 120.591 64.0683 123.444 72.0635 126.295C72.4368 125.652 72.8085 125.006 73.1779 124.357C75.491 120.291 77.7119 116.109 79.72 111.93C71.3516 109.12 64.013 106.178 58.833 103.85C55.9149 108.07 53.73 112.967 52.3549 118.299ZM81.6341 112.564C79.5676 116.882 77.2831 121.186 74.9163 125.346C74.6067 125.89 74.2956 126.432 73.9833 126.971C78.943 128.698 84.3113 130.407 89.9174 131.973C92.4316 127.227 94.8417 122.226 97.0387 117.037C95.7921 116.723 94.5516 116.399 93.3202 116.065C89.3062 114.977 85.3789 113.788 81.6341 112.564ZM99.0052 117.521C96.8114 122.729 94.405 127.748 91.8925 132.516C97.2355 133.962 102.765 135.264 108.338 136.32C110.882 131.172 113.212 125.894 115.192 120.591C109.859 119.891 104.389 118.817 99.0052 117.521ZM107.407 138.178C101.805 137.1 96.2637 135.781 90.9271 134.327C88.0076 139.737 84.9658 144.804 81.9642 149.432C87.6338 150.986 93.3772 152.244 99.006 153.251C99.5818 152.301 100.155 151.34 100.726 150.37C103.036 146.44 105.288 142.357 107.407 138.178ZM97.8862 155.081C92.2551 154.053 86.5009 152.772 80.8127 151.189C77.3817 156.37 74.0311 160.955 71.0068 164.798C76.141 166.484 81.9493 168.21 88.1179 169.771C91.2844 165.335 94.6094 160.385 97.8862 155.081ZM79.947 148.865C82.9562 144.254 86.0131 139.192 88.9494 133.779C83.3184 132.195 77.93 130.471 72.9549 128.73C69.903 133.904 66.7661 138.807 63.8121 143.179C68.9804 145.393 74.4176 147.274 79.947 148.865ZM140.159 138.925C136.641 139.119 133.017 139.109 129.332 138.927C131.409 133.895 133.383 128.606 135.193 123.087C135.25 123.214 135.307 123.341 135.364 123.469C137.648 128.599 139.231 133.797 140.159 138.925ZM73.4356 51.8716L73.2371 51.2471C71.6443 46.2382 69.0308 35.5341 68.4684 24.8272C66.8902 29.5675 65.4989 35.5676 65.2854 42.0362L65.0725 48.4841L64.0318 46.8541C63.8915 50.1762 63.7924 54.0559 63.8194 57.751C63.8392 60.4472 63.926 63.0319 64.111 65.2235C64.2982 67.4416 64.5797 69.1686 64.9537 70.2019L64.9658 70.2352L66.1068 74.2555L67.8321 75.0714L68.1621 75.1975C68.1059 66.0113 71.1429 56.9003 73.4356 51.8716ZM63.7055 73.1199L63.0608 70.8482C62.5973 69.548 62.3051 67.6077 62.1181 65.3917C61.9356 63.2299 61.8474 60.7224 61.8225 58.1273L57.6599 53.1901L57.7273 54.3288L40.3428 35.9548C41.5321 38.1562 42.7133 40.377 43.8265 42.5182C45.6899 46.1028 47.3755 49.4894 48.5904 52.199C49.1965 53.5509 49.6996 54.7655 50.0502 55.7681C50.2253 56.2689 50.3723 56.7448 50.4744 57.1759C50.5695 57.5773 50.6574 58.0667 50.6353 58.5484L50.5295 60.8458L53.0524 68.0817L63.7055 73.1199ZM50.5161 66.8823L48.3026 60.5337L47.7215 60.2344C46.455 59.582 44.4988 58.6335 42.7562 57.9095C41.9511 57.575 41.2334 57.3061 40.6698 57.1347C40.9241 57.3953 41.1758 57.6557 41.4236 57.9145C42.6359 59.1811 43.7776 60.4381 44.6625 61.5337C45.1041 62.0805 45.5029 62.6132 45.8199 63.105C46.1122 63.5585 46.4336 64.1253 46.5857 64.7129L46.6773 65.0668L50.5161 66.8823ZM57.4625 49.8531L61.8209 55.0225C61.852 51.0354 62.0017 47.0486 62.1692 43.9369L61.6007 43.0465C60.677 41.5996 59.1326 38.9245 57.7381 35.9001C57.353 39.598 57.1244 44.1368 57.4031 48.8479L57.4625 49.8531Z" fill="#FDD835"/>
</svg>
