<?xml version="1.0" standalone="no"?>
<!DOCTYPE svg PUBLIC "-//W3C//DTD SVG 1.1//EN" "http://www.w3.org/Graphics/SVG/1.1/DTD/svg11.dtd" >
<svg xmlns="http://www.w3.org/2000/svg">
<metadata>Generated by IcoMoon</metadata>
<defs>
<font id="icomoon" horiz-adv-x="1024">
<font-face units-per-em="1024" ascent="960" descent="-64" />
<missing-glyph horiz-adv-x="1024" />
<glyph unicode="&#x20;" horiz-adv-x="512" d="" />
<glyph unicode="&#xe900;" glyph-name="Vector1" d="M976.214 523.11l-853.334 426.666c-27.307 13.653-58.027 13.653-81.92-3.413-27.307-13.653-40.96-40.96-40.96-71.68v-853.332c0-30.72 13.653-58.029 40.96-71.68 13.653-10.24 27.307-13.654 44.373-13.654 13.653 0 27.307 3.414 37.547 10.24l853.334 426.666c27.306 13.654 47.786 44.374 47.786 75.094s-17.066 61.44-47.786 75.094zM170.667 157.882v580.268l576.853-290.133-576.853-290.134z" />
<glyph unicode="&#xe901;" glyph-name="Vector2" horiz-adv-x="993" d="M64.759-62.787c-12.952 0-21.587 4.31-34.538 8.617-17.269 12.93-30.221 34.481-30.221 56.031v861.974c0 21.549 12.952 43.099 30.221 56.028s43.173 12.93 64.759 4.31l863.453-430.988c21.585-12.93 34.537-34.478 34.537-56.028s-12.952-47.408-34.537-56.028l-863.453-430.989c-8.634-8.617-21.586-12.927-30.221-12.927zM129.518 760.399v-650.79l651.906 327.55-651.906 323.241z" />
<glyph unicode="&#xe902;" glyph-name="Vector3" horiz-adv-x="1056" d="M62.335-64c-9.267 0-18.534 0-23.167 4.643-13.9 9.29-23.167 23.219-23.167 41.795v928.8c0 13.932 9.267 32.508 23.167 41.796s32.435 9.288 46.335 0l926.696-464.4c13.901-9.286 27.802-23.219 27.802-41.795s-9.267-32.509-27.802-41.795l-926.696-464.4c-9.267-4.643-13.9-4.643-23.168-4.643zM108.67 836.934v-780.192l778.425 390.096-778.425 390.096z" />
<glyph unicode="&#xe903;" glyph-name="Vector4" horiz-adv-x="1425" d="M1410.449 485.1l-474.9 474.9-66.484-66.486 394.164-394.167h-1263.229v-94.978h1263.229l-394.164-394.164 66.484-66.489 474.9 474.9c18.997 18.997 18.997 47.491 0 66.484z" />
<glyph unicode="&#xe904;" glyph-name="Vector5" d="M1024 384h-224v544c0 19.2-12.8 32-32 32h-512c-19.2 0-32-12.8-32-32v-544h-224v-64h32v-352c0-19.2 12.8-32 32-32h896c19.2 0 32 12.8 32 32v352h32v64zM224 320v-64h-128v64h128zM96 192h128v-32h-128v32zM96 96h128v-96h-128v96zM480 160v-96h64v96h32v-160h-128v160h32zM736 0h-96v160h32v64h-320v-64h32v-160h-96v896h448v-896zM800 192h128v-32h-128v32zM800 0v96h128v-96h-128zM928 256h-128v64h128v-64zM672 800h-320v-64h320v64zM416 672h-64v-64h64v64zM672 672h-192v-64h192v64zM544 416h-192v-64h192v64zM672 416h-64v-64h64v64zM672 544h-320v-64h320v64z" />
<glyph unicode="&#xe905;" glyph-name="Vector6" horiz-adv-x="1056" d="M896 672v256c0 19.2-12.8 32-32 32h-160c-3.2 0-28.8 0-48-16-6.4-9.6-16-25.6-16-48v-224h-224v224h160v64h-160c-3.2 0-28.8 0-48-16-6.4-9.6-16-25.6-16-48v-224h-352v-64h352v-320h64v64h224v-64h64v320h320v64h-128zM640 608v-64h-224v64h224zM416 416v64h224v-64h-224zM704 896h128v-224h-128v224zM256 544h-256v-64h256v64zM1024 544h-256v-64h256v64zM681.6 224c-89.6 0-137.6-16-182.4-35.2-41.6-16-80-28.8-160-28.8s-118.4 16-160 28.8c-41.6 19.2-89.6 35.2-179.2 35.2v-64c80 0 118.4-16 160-28.8 44.8-16 89.6-35.2 182.4-35.2 89.6 0 137.6 16 182.4 35.2 41.6 16 80 28.8 160 28.8s118.4-16 160-28.8c44.8-16 89.6-35.2 182.4-35.2v64c-80 0-118.4 16-160 28.8-48 19.2-92.8 35.2-185.6 35.2zM681.6 64c-89.6 0-137.6-16-182.4-35.2-41.6-16-80-28.8-160-28.8s-118.4 16-160 28.8c-41.6 19.2-89.6 35.2-179.2 35.2v-64c80 0 118.4-16 160-28.8 44.8-16 89.6-35.2 182.4-35.2s137.6 16 182.4 35.2c41.6 16 80 28.8 160 28.8s118.4-16 160-28.8c44.8-16 89.6-35.2 182.4-35.2v64c-80 0-118.4 16-160 28.8-48 19.2-92.8 35.2-185.6 35.2z" />
<glyph unicode="&#xe906;" glyph-name="Vector7" horiz-adv-x="1092" d="M785.067 209.067c75.093 0 136.533 61.44 136.533 136.533v341.333c0 75.093-61.44 136.533-136.533 136.533h-68.267c-75.093 0-136.533-61.44-136.533-136.533v-341.333c0-75.093 61.44-136.533 136.533-136.533v-204.8h-341.333v341.333c75.093 0 136.533 61.44 136.533 136.533v341.333c0 75.093-61.44 136.533-136.533 136.533h-68.267c-75.093 0-136.533-61.44-136.533-136.533v-341.333c0-75.093 61.44-136.533 136.533-136.533v-341.333h-307.2v-68.267h1092.267v68.267h-307.2v204.8zM648.533 345.6v341.333c0 37.547 30.72 68.267 68.267 68.267h68.267c37.547 0 68.267-30.72 68.267-68.267v-341.333c0-37.547-30.72-68.267-68.267-68.267v170.667h-68.267v-170.667c-37.547 0-68.267 30.72-68.267 68.267zM238.933 482.133v341.333c0 37.547 30.72 68.267 68.267 68.267h68.267c37.547 0 68.267-30.72 68.267-68.267v-341.333c0-37.547-30.72-68.267-68.267-68.267v170.667h-68.267v-170.667c-37.547 0-68.267 30.72-68.267 68.267z" />
<glyph unicode="&#xe907;" glyph-name="Vector8" horiz-adv-x="1056" d="M336.003 505.6l-67.2-67.2 44.8-44.8 67.2 67.2c28.8-22.4 64-38.4 102.4-41.6v-99.2h64v99.2c38.4 6.4 73.6 19.2 102.4 41.6l67.2-67.2 44.8 44.8-67.2 67.2c22.4 28.8 38.4 64 41.6 102.4h99.2v64h-99.2c-6.4 38.4-19.2 73.6-41.6 102.4l67.2 67.2-44.8 44.8-67.2-67.2c-28.8 22.4-64 38.4-102.4 41.6v99.2h-64v-99.2c-38.4-6.4-73.6-19.2-102.4-41.6l-67.2 67.2-44.8-44.8 67.2-67.2c-22.4-28.8-38.4-64-41.6-102.4h-99.2v-64h99.2c6.4-38.4 19.2-73.6 41.6-102.4zM355.203 640c0 89.6 70.4 160 160 160s160-70.4 160-160c0-89.6-70.4-160-160-160s-160 70.4-160 160zM867.2 220.8c-44.8 16-89.6 35.2-182.4 35.2s-137.6-16-182.4-35.2c-41.6-16-80-28.8-160-28.8s-118.4 16-160 28.8c-44.8 16-89.6 35.2-182.4 35.2v-64c80 0 118.4-16 160-28.8 44.8-16 89.6-35.2 182.4-35.2 89.6 0 137.6 16 182.4 35.2 41.6 16 80 28.8 160 28.8s118.4-16 160-28.8c44.8-16 89.6-35.2 182.4-35.2v64c-80 0-118.4 16-160 28.8zM684.8 64c-89.6 0-137.6-16-182.4-35.2-41.6-16-80-28.8-160-28.8s-118.4 16-160 28.8c-44.8 16-89.6 35.2-182.4 35.2v-64c80 0 118.4-16 160-28.8 44.8-16 89.6-35.2 182.4-35.2s137.6 16 182.4 35.2c41.6 16 80 28.8 160 28.8s118.4-16 160-28.8c44.8-16 89.6-35.2 182.4-35.2v64c-80 0-118.4 16-160 28.8-44.8 19.2-89.6 35.2-182.4 35.2z" />
<glyph unicode="&#xe908;" glyph-name="Vector9" d="M928 0v115.2l86.4 86.4-44.8 44.8-86.4-86.4h-435.2v-64h64v-96h-128v544h288c19.2 0 32 12.8 32 32 0 188.8-134.4 336-320 352v32h-64v-32c-185.6-16-320-160-320-352 0-19.2 12.8-32 32-32h288v-544h-320v-64h1024v64h-96zM320 835.2v-227.2h-96c9.6 124.8 57.6 195.2 96 227.2zM384 835.2c38.4-35.2 86.4-102.4 96-227.2h-96v227.2zM640 608h-96c-6.4 112-41.6 188.8-80 236.8 96-38.4 163.2-124.8 176-236.8zM240 844.8c-38.4-48-73.6-124.8-80-236.8h-96c12.8 112 80 198.4 176 236.8zM576 96h288v-96h-288v96z" />
<glyph unicode="&#xe909;" glyph-name="Vector10" horiz-adv-x="1092" d="M1024 755.2h-273.067v136.533c0 44.373-34.133 68.267-68.267 68.267h-273.067c-44.373 0-68.267-34.133-68.267-68.267v-136.533h-273.067c-37.547 0-68.267-30.72-68.267-68.267v-682.667c0-37.547 30.72-68.267 68.267-68.267h955.733c37.547 0 68.267 30.72 68.267 68.267v682.667c0 37.547-30.72 68.267-68.267 68.267zM375.467 686.933h341.333v-682.667h-341.333v682.667zM307.2 4.267h-68.267v682.667h68.267v-682.667zM785.067 686.933h68.267v-682.667h-68.267v682.667zM409.6 891.733h273.067v-136.533h-273.067v136.533zM68.267 686.933h102.4v-682.667h-102.4v682.667zM1024 4.267h-102.4v682.667h102.4v-682.667zM648.533 516.267h-204.8v-68.267h204.8v68.267zM580.267 618.667h-68.267v-68.267h68.267v68.267z" />
<glyph unicode="&#xe90a;" glyph-name="Vector11" horiz-adv-x="832" d="M704 512h-576c-70.4 0-128-57.6-128-128v-448h64v448c0 35.2 28.8 64 64 64h172.8l86.4-172.8c6.4-9.6 16-19.2 28.8-19.2s22.4 6.4 28.8 19.2l86.4 172.8h172.8c35.2 0 64-28.8 64-64v-448h64v448c0 70.4-57.6 128-128 128zM416 358.4l-44.8 89.6h89.6l-44.8-89.6zM352 576h128c70.4 0 128 57.6 128 128v128c0 70.4-57.6 128-128 128h-128c-70.4 0-128-57.6-128-128v-128c0-70.4 57.6-128 128-128zM480 640h-128c-35.2 0-64 28.8-64 64v64h256v-64c0-35.2-28.8-64-64-64zM352 896h128c35.2 0 64-28.8 64-64h-256c0 35.2 28.8 64 64 64zM224 256h-64v-320h64v320zM672 256h-64v-320h64v320z" />
<glyph unicode="&#xe90b;" glyph-name="Vector12" horiz-adv-x="832" d="M704 512h-576c-70.4 0-128-57.6-128-128v-448h64v448c0 35.2 28.8 64 64 64h172.8l83.2-166.4v-249.6h64v249.6l83.2 166.4h172.8c35.2 0 64-28.8 64-64v-448h64v448c0 70.4-57.6 128-128 128zM416 358.4l-44.8 89.6h89.6l-44.8-89.6zM352 576h128c70.4 0 128 57.6 128 128v128c0 70.4-57.6 128-128 128h-128c-70.4 0-128-57.6-128-128v-128c0-70.4 57.6-128 128-128zM352 896h128c35.2 0 64-28.8 64-64h-256c0 35.2 28.8 64 64 64zM288 768h256v-64c0-35.2-28.8-64-64-64h-128c-35.2 0-64 28.8-64 64v64zM224 256h-64v-320h64v320zM672 256h-64v-320h64v320z" />
<glyph unicode="&#xe90c;" glyph-name="Vector13" horiz-adv-x="832" d="M704 512h-576c-70.4 0-128-57.6-128-128v-448h64v448c0 35.2 28.8 64 64 64h576c35.2 0 64-28.8 64-64v-448h64v448c0 70.4-57.6 128-128 128zM352 576h128c70.4 0 128 57.6 128 128v128c0 70.4-57.6 128-128 128h-128c-70.4 0-128-57.6-128-128v-128c0-70.4 57.6-128 128-128zM480 640h-128c-35.2 0-64 28.8-64 64v64h256v-64c0-35.2-28.8-64-64-64zM352 896h128c35.2 0 64-28.8 64-64h-256c0 35.2 28.8 64 64 64zM224 256h-64v-320h64v320zM672 256h-64v-320h64v320z" />
<glyph unicode="&#xe90d;" glyph-name="Vector14" horiz-adv-x="832" d="M704 512h-576c-70.4 0-128-57.6-128-128v-448h64v96h96v-96h64v320h-64v-160h-96v288c0 35.2 28.8 64 64 64h160c0-70.4 57.6-128 128-128s128 57.6 128 128h160c35.2 0 64-28.8 64-64v-288h-96v160h-64v-320h64v96h96v-96h64v448c0 70.4-57.6 128-128 128zM416 384c-35.2 0-64 28.8-64 64h128c0-35.2-28.8-64-64-64zM352 576h128c70.4 0 128 57.6 128 128v128c0 70.4-57.6 128-128 128h-128c-70.4 0-128-57.6-128-128v-128c0-70.4 57.6-128 128-128zM480 640h-128c-35.2 0-64 28.8-64 64v64h256v-64c0-35.2-28.8-64-64-64zM352 896h128c35.2 0 64-28.8 64-64h-256c0 35.2 28.8 64 64 64zM448 192h-64v-64h64v64zM448 64h-64v-64h64v64z" />
<glyph unicode="&#xe90e;" glyph-name="Vector15" horiz-adv-x="960" d="M64 224c0 105.6 54.4 160 160 160h108.8l118.4-236.8c6.4-9.6 16-19.2 28.8-19.2s22.4 6.4 28.8 19.2l118.4 236.8h108.8c105.6 0 160-54.4 160-160h64c0 140.8-83.2 224-224 224h-512c-140.8 0-224-83.2-224-224v-256c0-19.2 12.8-32 32-32h576v64h-544v224zM556.8 384l-76.8-153.6-76.8 153.6h153.6zM416 512h128c89.6 0 160 70.4 160 160v128c0 89.6-70.4 160-160 160h-128c-89.6 0-160-70.4-160-160v-128c0-89.6 70.4-160 160-160zM320 800c0 54.4 41.6 96 96 96h128c54.4 0 96-41.6 96-96v-128c0-54.4-41.6-96-96-96h-128c-54.4 0-96 41.6-96 96v128zM768 128h-64v-64h64v64zM960 128h-128v-64h128v64zM768 0h-64v-64h64v64zM960 0h-128v-64h128v64z" />
<glyph unicode="&#xe90f;" glyph-name="Vector16" horiz-adv-x="1170" d="M1097.143 813.714h-73.143v109.714c0 21.943-14.629 36.571-36.571 36.571h-365.714c-21.943 0-36.571-14.629-36.571-36.571v-109.714h-292.571v73.143h-146.286v-73.143h-73.143c-40.229 0-73.143-32.914-73.143-73.143v-731.429c0-40.229 32.914-73.143 73.143-73.143h1024c40.229 0 73.143 32.914 73.143 73.143v731.429c0 40.229-32.914 73.143-73.143 73.143zM658.286 886.857h292.571v-73.143h-292.571v73.143zM1097.143 9.143h-1024v731.429h1024v-731.429zM731.429 667.429c-160.914 0-292.571-131.657-292.571-292.571s131.657-292.571 292.571-292.571c160.914 0 292.571 131.657 292.571 292.571s-131.657 292.571-292.571 292.571zM731.429 155.429c-120.686 0-219.429 98.743-219.429 219.429s98.743 219.429 219.429 219.429c120.686 0 219.429-98.743 219.429-219.429s-98.743-219.429-219.429-219.429zM731.429 521.143c-80.457 0-146.286-65.829-146.286-146.286s65.829-146.286 146.286-146.286c80.457 0 146.286 65.829 146.286 146.286s-65.829 146.286-146.286 146.286zM731.429 301.714c-40.229 0-73.143 32.914-73.143 73.143s32.914 73.143 73.143 73.143c40.229 0 73.143-32.914 73.143-73.143s-32.914-73.143-73.143-73.143zM292.571 630.857h-73.143v-512h73.143v512z" />
<glyph unicode="&#xe910;" glyph-name="Vector17" d="M448 832c-70.4 0-128-57.6-128-128v-128c0-70.4 57.6-128 128-128h128c70.4 0 128 57.6 128 128v128c0 70.4-57.6 128-128 128h-128zM576 512h-128c-35.2 0-64 28.8-64 64v64h256v-64c0-35.2-28.8-64-64-64zM640 704h-256c0 35.2 28.8 64 64 64h128c35.2 0 64-28.8 64-64zM384 160h-64v-115.2c-35.2 16-67.2 38.4-96 60.8v182.4c0 35.2 28.8 64 64 64h352v64h-352c-70.4 0-128-57.6-128-128v-115.2c-60.8 76.8-96 172.8-96 275.2 0 246.4 201.6 448 448 448s448-201.6 448-448h64c0 281.6-230.4 512-512 512s-512-230.4-512-512c0-281.6 230.4-512 512-512v64c-44.8 0-86.4 6.4-128 19.2v140.8zM992 128h-96v160c0 19.2-12.8 32-32 32h-128c-19.2 0-32-12.8-32-32v-96h-96c-19.2 0-32-12.8-32-32v-192c0-19.2 12.8-32 32-32h384c19.2 0 32 12.8 32 32v128c0 19.2-12.8 32-32 32zM640 128h64v-128h-64v128zM768 160v96h64v-256h-64v160zM960 0h-64v64h64v-64z" />
<glyph unicode="&#xe911;" glyph-name="Vector18" horiz-adv-x="896" d="M864 704h-32v96c0 19.2-12.8 32-32 32h-32v96c0 19.2-12.8 32-32 32h-576c-19.2 0-32-12.8-32-32v-96h-32c-19.2 0-32-12.8-32-32v-96h-32c-19.2 0-32-12.8-32-32v-704c0-19.2 12.8-32 32-32h832c19.2 0 32 12.8 32 32v704c0 19.2-12.8 32-32 32zM832 208l-208 89.6 83.2 48 124.8-51.2v-86.4zM192 896h512v-64h-512v64zM128 768h640v-64h-640v64zM832 640v-272l-115.2 48c-9.6 3.2-19.2 3.2-28.8-3.2l-134.4-80-188.8 83.2c-9.6 3.2-19.2 3.2-28.8-3.2l-272-163.2v390.4h768zM64 0v172.8l291.2 172.8 476.8-208v-137.6h-768zM512 416c54.4 0 96 41.6 96 96s-41.6 96-96 96c-54.4 0-96-41.6-96-96s41.6-96 96-96zM512 544c19.2 0 32-12.8 32-32s-12.8-32-32-32c-19.2 0-32 12.8-32 32s12.8 32 32 32z" />
<glyph unicode="&#xe912;" glyph-name="Vector19" horiz-adv-x="1170" d="M1133.714 960h-1097.143c-21.943 0-36.571-14.629-36.571-36.571v-950.857c0-21.943 14.629-36.571 36.571-36.571h1097.143c21.943 0 36.571 14.629 36.571 36.571v950.857c0 21.943-14.629 36.571-36.571 36.571zM1097.143 213.943l-248.686 124.343 138.971 69.486 109.714-54.857v-138.971zM1097.143 886.857v-453.486l-95.086 47.543c-10.971 3.657-21.943 3.657-32.914 0l-204.8-102.4-351.086 175.543c-10.971 7.314-25.6 3.657-36.571 0l-310.858-186.514v519.314h1031.315zM73.143 9.143v270.629l329.143 197.486 694.857-347.429v-120.686h-1024zM731.429 521.143c80.457 0 146.286 65.829 146.286 146.286s-65.829 146.286-146.286 146.286c-80.457 0-146.286-65.829-146.286-146.286s65.829-146.286 146.286-146.286zM731.429 740.571c40.229 0 73.143-32.914 73.143-73.143s-32.914-73.143-73.143-73.143c-40.229 0-73.143 32.914-73.143 73.143s32.914 73.143 73.143 73.143z" />
<glyph unicode="&#xe913;" glyph-name="Vector20" d="M512 960c-281.6 0-512-230.4-512-512s230.4-512 512-512c281.6 0 512 230.4 512 512s-230.4 512-512 512zM512 0c-246.4 0-448 201.6-448 448s201.6 448 448 448c246.4 0 448-201.6 448-448s-201.6-448-448-448zM489.594 758.4l-192-192 44.8-44.8 137.6 137.6v-531.2h64v531.2l137.6-137.6 44.8 44.8-192 192c-12.8 12.8-32 12.8-44.8 0z" />
<glyph unicode="&#xe914;" glyph-name="Vector21" d="M512 960c-281.6 0-512-230.4-512-512s230.4-512 512-512c281.6 0 512 230.4 512 512s-230.4 512-512 512zM512 0c-246.4 0-448 201.6-448 448s201.6 448 448 448c246.4 0 448-201.6 448-448s-201.6-448-448-448zM543.994 236.8v531.2h-64v-531.2l-137.6 137.6-44.8-44.8 192-192c6.4-6.4 16-9.6 22.4-9.6s16 3.2 22.4 9.6l192 192-44.8 44.8-137.6-137.6z" />
<glyph unicode="&#xe915;" glyph-name="Vector22" d="M512 960c-281.6 0-512-230.4-512-512s230.4-512 512-512c281.6 0 512 230.4 512 512s-230.4 512-512 512zM512 0c-246.4 0-448 201.6-448 448s201.6 448 448 448c246.4 0 448-201.6 448-448s-201.6-448-448-448zM822.4 470.374l-192 192.001-44.8-44.801 137.6-137.6h-531.2v-64h531.2l-137.6-137.6 44.8-44.8 192 192c12.8 12.8 12.8 32 0 44.8z" />
<glyph unicode="&#xe916;" glyph-name="Vector23" d="M512 960c-281.6 0-512-230.4-512-512s230.4-512 512-512c281.6 0 512 230.4 512 512s-230.4 512-512 512zM512 0c-246.4 0-448 201.6-448 448s201.6 448 448 448c246.4 0 448-201.6 448-448s-201.6-448-448-448zM300.8 479.974l137.6 137.6-44.8 44.801-192-192.001c-12.8-12.8-12.8-32 0-44.8l192-192 44.8 44.8-137.6 137.6h531.2v64h-531.2z" />
<glyph unicode="&#xe917;" glyph-name="Vector24" d="M512 960c-281.6 0-512-230.4-512-512s230.4-512 512-512c281.6 0 512 230.4 512 512s-230.4 512-512 512zM512 0c-246.4 0-448 201.6-448 448s201.6 448 448 448c246.4 0 448-201.6 448-448s-201.6-448-448-448zM544 704h-64v-224h-224v-64h224v-224h64v224h224v64h-224v224z" />
<glyph unicode="&#xe918;" glyph-name="Vector25" d="M512 960c-281.6 0-512-230.4-512-512s230.4-512 512-512c281.6 0 512 230.4 512 512s-230.4 512-512 512zM512 0c-246.4 0-448 201.6-448 448s201.6 448 448 448c246.4 0 448-201.6 448-448s-201.6-448-448-448zM768 480h-512v-64h512v64z" />
<glyph unicode="&#xe919;" glyph-name="Vector26" d="M512 960c-281.6 0-512-230.4-512-512s230.4-512 512-512c281.6 0 512 230.4 512 512s-230.4 512-512 512zM512 0c-246.4 0-448 201.6-448 448s201.6 448 448 448c246.4 0 448-201.6 448-448s-201.6-448-448-448zM415.994 300.774l-137.6 137.6-44.8-44.8 160-160c6.4-6.4 16-9.6 22.4-9.6s16 3.2 22.4 9.6l352 352-44.8 44.8-329.6-329.6z" />
<glyph unicode="&#xe91a;" glyph-name="Vector27" d="M512 960c-281.6 0-512-230.4-512-512s230.4-512 512-512c281.6 0 512 230.4 512 512s-230.4 512-512 512zM512 0c-246.4 0-448 201.6-448 448s201.6 448 448 448c246.4 0 448-201.6 448-448s-201.6-448-448-448zM681.594 662.375l-169.6-169.601-169.6 169.601-44.8-44.801 169.6-169.6-169.6-169.6 44.8-44.8 169.6 169.6 169.6-169.6 44.8 44.8-169.6 169.6 169.6 169.6-44.8 44.801z" />
<glyph unicode="&#xe91b;" glyph-name="Vector28" horiz-adv-x="928" d="M608 512h-480c-70.4 0-128-57.6-128-128v-448h64v448c0 35.2 28.8 64 64 64h480v64zM832 256h-64v-320h64v320zM352 576h128c70.4 0 128 57.6 128 128v128c0 70.4-57.6 128-128 128h-128c-70.4 0-128-57.6-128-128v-128c0-70.4 57.6-128 128-128zM480 640h-128c-35.2 0-64 28.8-64 64v64h256v-64c0-35.2-28.8-64-64-64zM352 896h128c35.2 0 64-28.8 64-64h-256c0 35.2 28.8 64 64 64zM224 256h-64v-320h64v320zM672 256h-64v-320h64v320zM928 512h-96v96h-64v-96h-96v-64h96v-96h64v96h96v64z" />
<glyph unicode="&#xe91c;" glyph-name="Vector29" horiz-adv-x="1311" d="M655.36 509.44c-638.976 0-655.36-221.184-655.36-245.76v-245.76c0-45.056 36.864-81.92 81.92-81.92h245.76c45.056 0 81.92 36.864 81.92 81.92v163.84h491.52v-163.84c0-45.056 36.864-81.92 81.92-81.92h245.76c45.056 0 81.92 36.864 81.92 81.92v245.76c0 24.576-20.48 245.76-655.36 245.76zM1228.8 17.92h-245.76v204.8c0 24.576-16.384 40.96-40.96 40.96h-573.44c-24.576 0-40.96-16.384-40.96-40.96v-204.8h-245.76v245.76c0 0 20.48 163.84 573.44 163.84s573.44-163.84 573.44-163.84v-245.76zM696.32 960h-81.92v-368.64h81.92v368.64zM1075.384 865.464l-246.186-246.184 57.926-57.926 246.186 246.184-57.926 57.926zM234.666 865.445l-57.926-57.926 246.184-246.184 57.926 57.926-246.184 246.184z" />
<glyph unicode="&#xe91d;" glyph-name="Vector30" horiz-adv-x="1057" d="M990.968 398.452h-198.194c-36.335 0-66.065-29.729-66.065-66.065v-132.129h-396.388v132.129c0 36.335-29.729 66.065-66.065 66.065h-198.194c-36.335 0-66.064-29.729-66.064-66.065v-198.194c0-19.819 13.212-198.194 528.516-198.194s528.516 178.374 528.516 198.194v198.194c0 36.335-29.729 66.065-66.065 66.065zM528.516 2.065c-445.936 0-462.452 132.129-462.452 132.129v198.194h198.194v-165.161c0-19.819 13.213-33.032 33.032-33.032h462.452c19.819 0 33.032 13.213 33.032 33.032v165.161h198.194v-198.194c0 0-19.819-132.129-462.452-132.129zM264.258 497.548h198.194v-132.129c0-13.213 6.606-26.426 19.819-29.729 3.303-3.303 9.91-3.303 13.213-3.303 9.91 0 16.516 3.303 23.123 9.91l155.252 155.252h118.916c36.335 0 66.065 29.729 66.065 66.065v330.323c0 36.335-29.729 66.065-66.065 66.065h-528.516c-36.335 0-66.065-29.729-66.065-66.065v-330.323c0-36.335 29.729-66.065 66.065-66.065zM264.258 893.935h528.516v-330.323h-132.129c-9.91 0-16.516-3.303-23.123-9.91l-109.006-109.006v85.884c0 19.819-13.213 33.032-33.032 33.032h-231.226v330.323zM726.71 827.871h-396.387v-66.065h396.387v66.065zM726.71 695.742h-396.387v-66.065h396.387v66.065z" />
<glyph unicode="&#xe91e;" glyph-name="Vector31" horiz-adv-x="1182" d="M661.662 960c-248.123 0-456.862-177.231-500.185-413.538l-98.462 122.092-63.015-47.26 157.538-196.924c7.877-7.877 19.692-15.754 31.508-15.754 7.877 0 11.815 0 15.754 3.938l236.308 118.154-35.446 70.893-173.292-86.647c35.446 208.739 212.677 366.277 429.292 366.277 240.246 0 433.231-192.985 433.231-433.231s-192.985-433.231-433.231-433.231v-78.769c283.569 0 512 228.431 512 512s-228.431 512-512 512z" />
<glyph unicode="&#xe91f;" glyph-name="Vector32" horiz-adv-x="1988" d="M1957.635 580.471l-361.412 361.412-84.329-84.331 259.012-259.011h-1602.259c-60.235 0-120.47-42.165-120.47-120.471v-542.118h120.47v542.118h1602.259l-259.012-259.012 84.329-84.329 361.412 361.411c24.094 24.094 24.094 60.237 0 84.331z" />
<glyph unicode="&#xe920;" glyph-name="Vector33" horiz-adv-x="1988" d="M1855.235 960v-542.118h-1602.259l259.012 259.011-84.329 84.331-361.412-361.412c-24.094-24.094-24.094-60.236 0-84.33l361.412-361.412 84.329 84.329-259.012 259.012h1596.235c6.024 0 18.071 0 24.094 0 18.071 0 42.165 6.024 60.235 18.071 12.047 12.047 36.141 36.141 36.141 84.33v560.188h-114.447z" />
<glyph unicode="&#xe921;" glyph-name="Vector34" horiz-adv-x="1690" d="M1356.79 258.519l307.2 307.199c20.48 20.48 20.48 51.202 0 71.682l-307.2 307.2-71.68-71.681 220.16-220.159h-1310.72c-61.44 0-153.6-40.96-153.6-153.6v-409.601c0-61.44 40.96-153.6 153.6-153.6h1177.6v102.4h-1177.6c-40.96 0-51.2 25.6-51.2 51.2v409.601c0 40.96 30.72 51.2 51.2 51.2h1310.72l-220.16-220.161 71.68-71.68z" />
<glyph unicode="&#xe922;" glyph-name="Vector35" horiz-adv-x="1690" d="M1525.75 960h-1177.599v-102.4h1177.599c46.080 0 51.2-51.199 51.2-66.559v-409.601c0-10.24 0-20.48-10.24-30.72s-25.6-10.24-35.84-10.24h-1315.839l220.161 220.161-71.682 71.678-307.2-307.199c-20.48-20.48-20.48-51.2 0-71.68l307.2-307.2 71.682 71.68-220.161 220.16h1305.599c5.12 0 10.24 0 15.36 0 25.6 0 66.56 5.12 97.28 30.72 20.48 15.36 46.080 51.2 46.080 107.52v409.599c0 71.68-40.96 174.081-153.6 174.081z" />
<glyph unicode="&#xe923;" glyph-name="Vector36" d="M256 192c-60.8 0-108.8-41.6-124.8-96h-131.2v-64h131.2c12.8-54.4 64-96 124.8-96s108.8 41.6 124.8 96h643.2v64h-643.2c-16 54.4-64 96-124.8 96zM256 0c-35.2 0-64 28.8-64 64s28.8 64 64 64c35.2 0 64-28.8 64-64s-28.8-64-64-64zM608 576c-60.8 0-108.8-41.6-124.8-96h-483.2v-64h483.2c12.8-54.4 64-96 124.8-96s108.8 41.6 124.8 96h291.2v64h-291.2c-16 54.4-64 96-124.8 96zM608 384c-35.2 0-64 28.8-64 64s28.8 64 64 64c35.2 0 64-28.8 64-64s-28.8-64-64-64zM476.8 864c-12.8 54.4-64 96-124.8 96s-108.8-41.6-124.8-96h-227.2v-64h227.2c12.8-54.4 64-96 124.8-96s108.8 41.6 124.8 96h547.2v64h-547.2zM352 768c-35.2 0-64 28.8-64 64s28.8 64 64 64c35.2 0 64-28.8 64-64s-28.8-64-64-64z" />
<glyph unicode="&#xe924;" glyph-name="Vector37" d="M826.040 393.4c-13.653 13.653-30.72 20.48-51.2 20.48-17.067 0-37.547-6.827-51.2-20.48l-98.987-98.987-296.96 296.96 98.986 98.987c27.307 27.307 27.307 68.266 0 95.573l-150.186 150.187c-13.653 13.653-30.72 20.48-51.2 20.48-17.067 0-37.547-6.826-51.2-20.48l-143.36-146.773c-3.413-3.413-44.373-47.787-23.893-139.947 20.48-109.226 112.64-245.76 273.067-406.186 228.693-228.693 372.053-279.893 453.973-279.893 58.027 0 85.333 23.893 92.16 30.72l150.187 150.187c13.653 13.653 20.48 30.72 20.48 51.2 0 17.067-6.827 37.547-20.48 51.2l-150.187 146.773zM768.014 52.067c0 0-116.053-75.093-433.493 242.347-324.267 324.267-242.347 433.493-242.347 433.493l143.36 143.36 143.36-143.36-119.466-119.466c-13.653-13.653-13.653-34.133 0-47.787l337.92-337.92c13.653-13.653 34.133-13.653 47.787 0l119.467 119.467 143.36-143.36-139.947-146.773zM965.994 960h-238.933v-68.267h157.013l-351.573-351.573 47.787-47.787 351.573 351.574v-157.014h68.267v238.933c0 20.48-17.067 34.133-34.133 34.133z" />
<glyph unicode="&#xe925;" glyph-name="Vector38" horiz-adv-x="1056" d="M809.619 960c-99.2 0-185.6-67.2-214.4-156.8l-51.2 51.2-44.8-44.8 96-96c6.4-6.4 12.8-9.6 22.4-9.6 6.4 0 9.6 0 12.8 3.2l128 64-28.8 57.599-70.4-35.2c22.4 60.8 80 102.4 150.4 102.4 89.6 0 160-70.4 160-160s-70.4-160-160-160v-64c124.8 0 224 99.2 224 224s-102.4 224-224 224zM806.406 364.813c-12.8 12.8-28.8 19.2-48 19.2-16 0-35.2-6.4-48-19.2l-92.8-92.8-278.4 278.4 92.8 92.8c25.6 25.6 25.6 64 0 89.6l-140.799 140.8c-12.8 12.8-28.8 19.2-48 19.2-16 0-35.2-6.4-48-19.2l-140.8-140.8c-3.2-3.2-41.6-44.8-22.4-131.2 19.2-102.4 105.6-230.4 256-380.8 214.399-214.4 348.799-262.4 425.599-262.4 54.4 0 80 22.4 86.4 28.8l140.8 140.8c12.8 12.8 19.2 28.8 19.2 48 0 16-6.4 35.2-19.2 48l-134.4 140.8zM752.006 44.813c0 0-108.8-70.4-406.4 227.2-303.999 304-227.2 406.4-227.2 406.4l134.4 134.4 134.399-134.4-111.999-112c-12.8-12.8-12.8-32 0-44.8l316.799-316.8c12.8-12.8 32-12.8 44.8 0l112 112 134.4-134.4-131.2-137.6z" />
<glyph unicode="&#xe926;" glyph-name="Vector39" horiz-adv-x="1097" d="M1064.225 199.314l-157.257 157.257c-14.629 14.629-32.914 21.943-51.2 21.943s-40.229-7.314-54.857-21.943l-106.057-106.057-318.171 318.171 106.057 106.058c29.257 29.257 29.257 73.142 0 102.4l-160.913 160.915c-14.629 14.629-32.914 21.943-54.857 21.943h10.971c-18.286 0-40.229-7.314-51.2-21.943l-157.256-157.257c-3.657-3.657-47.543-51.2-25.601-149.943 21.943-117.029 120.686-263.314 292.571-431.543l51.199 51.2c-354.742 354.743-263.313 475.429-263.313 475.429l157.256 157.257 157.256-157.257-131.656-131.658c-14.629-14.629-14.629-36.571 0-51.2l373.027-373.029c14.629-14.629 36.571-14.629 51.2 0l131.657 131.657 160.914-157.257-142.629-135.314h-58.514c-18.286 0-29.257 10.971-51.2 29.257s-51.2 47.543-98.743 47.543c-47.543 0-76.8-25.6-98.743-47.543-18.286-18.286-29.257-29.257-51.2-29.257-18.286 0-29.257 10.971-47.543 29.257-21.943 18.286-51.2 47.543-98.743 47.543-47.542 0-76.799-25.6-98.742-47.543-18.286-18.286-29.257-29.257-51.2-29.257v-73.143c47.543 0 76.801 25.6 98.744 47.543 18.286 18.286 29.256 25.6 47.541 25.6s29.257-10.971 47.543-25.6c21.943-18.286 51.2-47.543 98.743-47.543s76.8 25.6 98.743 47.543c18.286 18.286 29.257 25.6 47.543 25.6s29.257-10.971 47.543-25.6c21.943-18.286 51.2-47.543 98.743-47.543h73.143c10.971 0 18.286 3.657 25.6 10.971l153.6 146.286c14.629 14.629 21.943 32.914 21.943 51.2 0 21.943-10.971 40.229-21.943 54.857zM146.286 12.785h-146.286v-73.143h146.286v73.143z" />
<glyph unicode="&#xe927;" glyph-name="Vector40" d="M512 960c-281.6 0-512-230.4-512-512s230.4-512 512-512c281.6 0 512 230.4 512 512s-230.4 512-512 512zM512 0c-246.4 0-448 201.6-448 448s201.6 448 448 448c246.4 0 448-201.6 448-448s-201.6-448-448-448zM512 832c-211.2 0-384-172.8-384-384s172.8-384 384-384c211.2 0 384 172.8 384 384s-172.8 384-384 384zM512 128c-176 0-320 144-320 320s144 320 320 320c176 0 320-144 320-320s-144-320-320-320zM512 672v-64c89.6 0 160-70.4 160-160h64c0 124.8-99.2 224-224 224zM736 384h-64v-64h64v64z" />
<glyph unicode="&#xe928;" glyph-name="Vector41" horiz-adv-x="1170" d="M281.601 396.8l-51.201 51.2-219.429-219.429c-14.629-14.629-14.629-36.571 0-51.2l219.429-219.429 51.201 51.2-157.258 157.257h972.8v73.143h-972.8l157.258 157.257zM1159.314 740.571l-219.429 219.429-51.2-51.201 157.257-157.257h-972.8v-73.143h972.8l-157.257-157.257 51.2-51.2 219.429 219.428c14.629 14.629 14.629 36.572 0 51.201z" />
<glyph unicode="&#xe929;" glyph-name="Vector42" horiz-adv-x="1170" d="M877.714 239.543h-753.37l157.256 157.257-51.201 51.2-219.429-219.429c-14.629-14.629-14.629-36.571 0-51.2l219.429-219.429 51.201 51.2-157.256 157.257h789.941c21.943 0 36.571 14.629 36.571 36.571v146.286h-73.143v-109.714zM1159.314 740.571l-219.429 219.429-51.2-51.201 157.257-157.257h-789.943c-21.943 0-36.571-14.629-36.571-36.571v-146.285h73.143v109.714h753.371l-157.257-157.257 51.2-51.2 219.429 219.428c14.629 14.629 14.629 36.572 0 51.201z" />
<glyph unicode="&#xe92a;" glyph-name="Vector43" d="M1024 448c0 281.6-230.4 512-512 512s-512-230.4-512-512c0-281.6 230.4-512 512-512h512v64h-265.6c160 86.4 265.6 256 265.6 448zM64 448c0 246.4 201.6 448 448 448s448-201.6 448-448c0-246.4-201.6-448-448-448s-448 201.6-448 448zM512 576c-70.4 0-128-57.6-128-128s57.6-128 128-128c70.4 0 128 57.6 128 128s-57.6 128-128 128zM512 384c-35.2 0-64 28.8-64 64s28.8 64 64 64c35.2 0 64-28.8 64-64s-28.8-64-64-64zM512 640c54.4 0 96 41.6 96 96s-41.6 96-96 96c-54.4 0-96-41.6-96-96s41.6-96 96-96zM512 768c19.2 0 32-12.8 32-32s-12.8-32-32-32c-19.2 0-32 12.8-32 32s12.8 32 32 32zM512 256c-54.4 0-96-41.6-96-96s41.6-96 96-96c54.4 0 96 41.6 96 96s-41.6 96-96 96zM512 128c-19.2 0-32 12.8-32 32s12.8 32 32 32c19.2 0 32-12.8 32-32s-12.8-32-32-32zM224 544c-54.4 0-96-41.6-96-96s41.6-96 96-96c54.4 0 96 41.6 96 96s-41.6 96-96 96zM224 416c-19.2 0-32 12.8-32 32s12.8 32 32 32c19.2 0 32-12.8 32-32s-12.8-32-32-32zM896 448c0 54.4-41.6 96-96 96s-96-41.6-96-96c0-54.4 41.6-96 96-96s96 41.6 96 96zM800 416c-19.2 0-32 12.8-32 32s12.8 32 32 32c19.2 0 32-12.8 32-32s-12.8-32-32-32z" />
<glyph unicode="&#xe92b;" glyph-name="Vector44" horiz-adv-x="622" d="M610.743 901.429l-47.543 54.857-548.571-475.43c-10.971-3.657-14.629-14.629-14.629-25.6s3.657-21.943 10.971-29.257l548.571-475.429 47.543 54.857-515.657 449.829 519.314 446.173z" />
<glyph unicode="&#xe92c;" glyph-name="Vector45" horiz-adv-x="622" d="M610.757 484.571l-548.572 475.429-47.543-54.857 515.657-449.829-515.657-446.171 47.543-54.857 548.572 475.429c7.314 7.314 10.971 18.286 10.971 29.257s-3.657 18.286-10.971 25.6z" />
<glyph unicode="&#xe92d;" glyph-name="Vector46" horiz-adv-x="1396" d="M1382.4 494.545l-465.455 465.455-65.164-65.165 386.327-386.327h-1005.382v-93.090h1005.382l-386.327-386.327 65.164-65.164 465.455 465.455c18.618 18.618 18.618 46.545 0 65.164zM93.091 834.364h-93.091v-744.726h93.091v744.726z" />
<glyph unicode="&#xe92e;" glyph-name="Vector47" horiz-adv-x="1396" d="M544.582 894.835l-65.164 65.165-465.455-465.455c-18.618-18.618-18.618-46.545 0-65.164l465.455-465.455 65.164 65.164-386.325 386.327h1005.38v93.090h-1005.38l386.325 386.327zM1396.364 834.364h-93.091v-744.726h93.091v744.726z" />
<glyph unicode="&#xe92f;" glyph-name="Vector48" d="M204.8 4.267h-204.8v-68.267h204.8v68.267zM477.867 4.267h-204.8v-68.267h204.8v68.267zM750.933 4.267h-204.8v-68.267h204.8v68.267zM1024 4.267h-204.8v-68.267h204.8v68.267zM204.8 140.8h-204.8v-68.267h204.8v68.267zM477.867 140.8h-204.8v-68.267h204.8v68.267zM750.933 140.8h-204.8v-68.267h204.8v68.267zM1024 140.8h-204.8v-68.267h204.8v68.267zM204.8 277.333h-204.8v-68.267h204.8v68.267zM477.867 277.333h-204.8v-68.267h204.8v68.267zM750.933 277.333h-204.8v-68.267h204.8v68.267zM1024 277.333h-204.8v-68.267h204.8v68.267zM477.867 413.867h-204.8v-68.267h204.8v68.267zM477.867 550.4h-204.8v-68.267h204.8v68.267zM477.867 686.933h-204.8v-68.267h204.8v68.267zM750.933 413.867h-204.8v-68.267h204.8v68.267zM750.933 550.4h-204.8v-68.267h204.8v68.267zM750.933 686.933h-204.8v-68.267h204.8v68.267zM750.933 823.467h-204.8v-68.267h204.8v68.267zM750.933 960h-204.8v-68.267h204.8v68.267zM1024 413.867h-204.8v-68.267h204.8v68.267z" />
<glyph unicode="&#xe930;" glyph-name="Vector49" horiz-adv-x="1469" d="M1384.626 692.468h-756.87v222.609c0 17.809-8.904 31.166-26.713 40.071s-35.617 4.451-48.974-4.454l-534.261-445.216c-8.904-8.904-17.808-22.261-17.808-35.617s4.452-26.713 17.808-35.617l534.261-445.217c8.904-8.904 17.809-8.904 26.713-8.904 4.452 0 13.357-0.004 17.809 4.448 17.809 8.904 26.713 22.265 26.713 40.074v222.609h756.87c26.713 0 44.522 17.809 44.522 44.522v356.173c4.452 26.713-13.357 44.522-40.070 44.522zM1340.104 336.295h-756.87c-26.713 0-44.522-17.809-44.522-44.522v-173.639l-418.505 351.726 418.505 351.722v-173.636c0-26.713 17.809-44.522 44.522-44.522h756.87v-267.129z" />
<glyph unicode="&#xe931;" glyph-name="Vector50" horiz-adv-x="1425" d="M1411.339 505.478l-534.261 445.216c-13.357 8.904-31.165 13.358-48.974 4.454s-26.713-22.262-26.713-40.071v-222.609h-756.87c-26.713 0-44.522-17.809-44.522-44.522v-356.173c0-26.713 17.809-44.522 44.522-44.522h756.87v-222.609c0-17.809 8.904-31.17 26.713-40.074 4.452-4.452 13.357-4.448 17.809-4.448 8.904 0 22.261 4.452 26.713 8.904l534.261 445.217c8.904 8.904 17.809 22.261 17.809 35.617s0 26.713-13.357 35.617zM894.887 118.134v173.639c0 26.713-17.809 44.522-44.522 44.522h-756.87v267.129h756.87c26.713 0 44.522 17.809 44.522 44.522v173.636l418.504-351.722-418.504-351.726z" />
<glyph unicode="&#xe932;" glyph-name="Vector52" d="M1005.19 47.594h-103.926l-25.232 239.68 27.923-41.878 6.918-34.637c3.338-16.694 13.834-30.906 28.81-39.030 8.483-4.602 17.805-6.918 27.174-6.918 7.171 0 14.378 1.363 21.245 4.106 14.787 5.914 26.509 17.84 32.182 32.73 5.658 14.89 4.822 31.587-2.298 45.846l-14.586 29.184c-0.051 0.118-0.154 0.189-0.221 0.291-0.035 0.083-0.035 0.17-0.067 0.253l-102.224 187.411c-1.891 3.475-4.957 6.182-8.621 7.667l-46.17 18.467c34.653 28.144 56.87 71.043 56.87 119.056 0 25.674-6.765 50.957-19.203 73.582l-8.79 87.946c27.43 11.62 45.030 34.432 45.030 59.954 0 36.681-36.41 66.684-81.83 68.098-18.112 31.434-51.69 51.162-88.541 51.162s-70.432-19.729-88.544-51.162c-45.421-1.414-81.827-31.417-81.827-68.098 0-25.522 17.597-48.334 45.027-59.954l-8.79-87.946c-12.438-22.625-19.2-47.909-19.2-73.582 0-48.013 22.214-90.912 56.886-119.040l-46.17-18.467c-2.726-1.091-5.13-2.88-6.97-5.181l-57.501-71.878-69.478 55.574-18.554 30.922c-3.152 5.267-7.171 9.728-11.517 13.802v46.118c0 22.182-14.294 40.925-34.074 47.978v71.283h17.037c28.179 0 51.114 22.932 51.114 51.111v102.223c0 28.18-22.934 51.112-51.114 51.112h-68.147c-28.179 0-51.112-22.932-51.112-51.112v-102.223c0-28.18 22.933-51.111 51.112-51.111h17.037v-71.283c-19.779-7.053-34.074-25.795-34.074-47.978v-68.147c0-0.016 0-0.051 0-0.067-4.259-10.138-6.17-21.197-4.787-32.509 2.435-19.712 13.594-36.886 30.614-47.107l32.234-19.338 113.264-99.104c19.030-16.63 46.918-16.986 66.378-0.784l47.619 39.696-28.096-266.717h-297.843l19.984 39.971c31.894 12.317 54.672 43.104 54.672 79.29v37.21c19.782 7.053 34.077 25.792 34.077 47.974 0 28.182-22.934 51.114-51.114 51.114h-306.668c-28.179 0-51.111-22.931-51.111-51.114 0-22.182 14.294-40.922 34.074-47.974v-37.21c0-36.186 22.779-66.973 54.672-79.29l19.984-39.971h-91.694c-9.404 0-17.037-7.632-17.037-17.037v-68.147c0-9.405 7.633-17.037 17.037-17.037h988.153c9.405 0 17.037 7.632 17.037 17.037v68.147c0 9.405-7.632 17.037-17.037 17.037zM374.816 695.005h-17.037c-9.386 0-17.037 7.65-17.037 17.037v102.223c0 9.388 7.651 17.037 17.037 17.037h17.037v-136.297zM987.507 232.275c2.912-5.824 3.254-12.4 0.938-18.499-2.32-6.083-6.934-10.787-12.982-13.206-6.355-2.538-13.494-2.128-19.526 1.142s-10.291 9.011-11.635 15.744l-4.397 21.994 39.136 9.779 8.467-16.954zM873.92 442.941l88.73-162.672-35.13-8.771-59.904 89.853-24.739 94.010 31.043-12.419zM836.525 337.226l30.496-289.632h-234.755l30.48 289.632h173.779zM669.526 371.299l25.11 95.494c0.682-0.256 1.382-0.445 2.064-0.682 3.424-1.261 6.864-2.47 10.39-3.494 1.347-0.39 2.71-0.698 4.054-1.037 3.254-0.854 6.509-1.67 9.83-2.301 1.67-0.323 3.357-0.512 5.027-0.768 3.085-0.477 6.15-0.986 9.286-1.293 2.198-0.205 4.413-0.224 6.608-0.342 2.592-0.134 5.13-0.39 7.738-0.39 2.605 0 5.142 0.256 7.734 0.39 2.214 0.118 4.413 0.138 6.608 0.342 3.136 0.288 6.202 0.8 9.286 1.293 1.67 0.256 3.357 0.445 5.027 0.768 3.322 0.63 6.576 1.466 9.83 2.301 1.344 0.355 2.707 0.646 4.054 1.037 3.526 1.024 6.986 2.218 10.394 3.494 0.682 0.256 1.379 0.426 2.061 0.682l25.13-95.494h-160.234zM613.338 831.302c0 18.468 23.408 34.075 51.11 34.075 0.989 0 1.926-0.119 2.88-0.222l2.742-0.255c7.171-0.426 14.054 3.578 16.954 10.273 10.765 25.096 35.35 41.315 62.611 41.315 27.258 0 51.843-16.22 62.627-41.315 2.88-6.696 9.866-10.836 16.95-10.273l2.746 0.255c0.938 0.102 1.872 0.222 2.861 0.222 27.702 0 51.11-15.606 51.11-34.075 0-13.612-13.763-26.629-33.475-31.672-8.163-2.078-13.581-9.813-12.746-18.196l10.358-103.467h-200.867l10.342 103.45c0.835 8.382-4.582 16.117-12.746 18.196-19.693 5.060-33.459 18.076-33.459 31.689zM630.374 609.821c0 11.549 1.722 23.034 5.024 34.073h228.451c3.325-11.040 5.043-22.524 5.043-34.073 0-47.296-27.754-88.134-67.757-107.402-3.866-1.859-7.818-3.51-11.824-4.925-0.186-0.067-0.374-0.138-0.56-0.205-25.386-8.877-52.883-8.877-78.269 0-0.189 0.067-0.374 0.138-0.563 0.205-4.003 1.414-7.939 3.066-11.824 4.925-39.968 19.267-67.722 60.106-67.722 107.402zM408.893 831.302h17.037c9.386 0 17.037-7.65 17.037-17.037v-102.223c0-9.388-7.651-17.037-17.037-17.037h-17.037v136.297zM391.853 558.707c9.389 0 17.040-7.648 17.040-17.037v-29.61c-0.102 0.016-0.224 0.016-0.326 0.035-0.406 0.051-0.765 0.237-1.174 0.288-0.938 0.118-1.856-0.051-2.778 0.035-2.963 0.237-5.894 0.272-8.858 0.102-1.485-0.086-2.947-0.086-4.397-0.272-3.51-0.445-6.934-1.261-10.323-2.285-1.45-0.442-2.848-0.902-4.259-1.43-0.65-0.24-1.312-0.394-1.942-0.646v33.782h-0.019c0 9.389 7.651 17.037 17.037 17.037zM384.138 423.059c-7.99 4.787-13.222 12.829-14.346 22.064-0.752 6.013 0.493 11.891 3.152 17.12 0.067 0.138 0.186 0.221 0.256 0.358 0.73 1.398 1.462 2.589 2.214 3.696 0.918 1.28 1.821 2.573 2.947 3.699 2.384 2.4 5.162 4.224 8.074 5.638 0.24 0.118 0.477 0.272 0.717 0.39 2.912 1.312 6.013 2.131 9.184 2.454 0.237 0.016 0.458 0.051 0.698 0.067 3.085 0.256 6.202-0.016 9.267-0.714 0.323-0.067 0.65-0.138 0.954-0.221 3.187-0.854 6.288-2.166 9.133-4.106 0.086-0.051 0.189-0.086 0.272-0.138 3.424-2.384 6.406-5.434 8.64-9.149l13.27-22.131-32.301-32.304-22.131 13.274zM556.637 300.8c-6.474-5.382-15.792-5.299-22.131 0.256l-100.707 88.115 27.446 27.446 73.277-58.624c7.328-5.878 18.061-4.701 23.939 2.659l65.338 81.674 32.557 13.018-24.074-91.507-75.645-63.037zM51.111 235.002c-9.388 0-17.037 7.651-17.037 17.037 0 9.389 7.65 17.040 17.037 17.040h306.668c9.389 0 17.037-7.651 17.037-17.040 0-9.386-7.648-17.037-17.037-17.037h-306.668zM68.148 166.854v34.074h272.594v-34.074c0-28.179-22.932-51.11-51.111-51.11h-170.372c-28.179 0-51.111 22.931-51.111 51.11zM279.102 81.667l-17.037-34.074h-40.582v34.074h57.62zM187.408 81.667v-34.074h-40.582l-17.037 34.074h57.62zM988.154-20.554h-954.079v34.074h954.079v-34.074z" />
<glyph unicode="&#xe933;" glyph-name="Vector51" horiz-adv-x="1365" d="M1342.579 721.028h-68.267v34.133c0 43.986-35.661 79.645-79.646 79.645-11.831-0.066-23.497-2.796-34.133-7.987v30.743c0 50.27-40.751 91.022-91.021 91.022s-91.025-40.752-91.025-91.022v-136.533h-91.021v22.755c0.166 37.538-30.131 68.105-67.669 68.272-17.054 0.077-33.51-6.26-46.11-17.755-25.724 23.666-65.297 23.666-91.021 0-25.724 23.666-65.297 23.666-91.021 0-27.733 25.299-70.724 23.325-96.026-4.409-11.49-12.598-17.826-29.056-17.754-46.109v-22.755h-91.022v136.533c0 50.27-40.753 91.022-91.023 91.022s-91.022-40.752-91.022-91.022v-30.743c-10.636 5.191-22.301 7.921-34.133 7.987-43.986 0-79.645-35.658-79.645-79.645v-34.133h-68.267c-12.567 0-22.756-10.189-22.756-22.755v-136.534c0-12.567 10.189-22.755 22.756-22.755h68.267v-34.134c0-43.985 35.658-79.642 79.645-79.642 11.833 0.064 23.498 2.795 34.133 7.987v-30.746c0-50.27 40.752-91.021 91.022-91.021s91.023 40.751 91.023 91.021v136.534h45.51v-76.071c-0.073-30.187 11.93-59.153 33.34-80.439l57.685-57.711v-377.421h45.508v386.842c0 6.037-2.398 11.823-6.665 16.090l-64.354 64.375c-12.77 12.821-19.955 30.17-20.002 48.265v144.338h133.278c8.619 0.116 16.781-3.84 22.029-10.672 0.158-0.228 0.341-0.455 0.499-0.706 0.977-1.553 1.741-3.228 2.278-4.983 0.427-1.402 0.717-2.842 0.862-4.301 0.162-1.428 0.162-2.873 0-4.3-0.051-0.765-0.149-1.525-0.294-2.276-0.516-2.398-1.399-4.699-2.615-6.827-3.968-7.046-11.418-11.415-19.503-11.446h-68.267c-12.565 0-22.754-10.189-22.754-22.755v-45.509c-0.004-9.801 6.268-18.5 15.565-21.598l50.061-16.725c40.64-13.491 70.908-74.999 70.908-120.969h45.508c0 62.601-38.955 143.181-101.922 164.16l-34.611 11.537v6.349h45.513c19.153 0.183 37.333 8.448 50.061 22.755h200.252v-83.444c-0.030-14.767-4.817-29.129-13.653-40.96l-50.065-66.743c-2.953-3.938-4.548-8.73-4.548-13.653v-386.842h45.508v379.264l45.513 60.668c14.729 19.716 22.711 43.657 22.754 68.267v83.444h68.267v-136.534c0-50.27 40.755-91.021 91.025-91.021s91.021 40.751 91.021 91.021v30.746c10.637-5.193 22.302-7.923 34.133-7.987 43.985 0 79.646 35.657 79.646 79.642v34.134h68.267c12.565 0 22.754 10.189 22.754 22.755v136.534c0 12.567-10.189 22.755-22.754 22.755zM91.022 584.495h-45.511v91.022h45.511v-91.022zM204.8 504.849c0-18.85-15.283-34.133-34.133-34.133s-34.133 15.283-34.133 34.133v250.312c0 18.85 15.283 34.133 34.133 34.133s34.133-15.283 34.133-34.133v-250.312zM341.333 402.449c0-25.135-20.375-45.508-45.511-45.508s-45.511 20.373-45.511 45.508v455.112c0 25.136 20.375 45.511 45.511 45.511s45.511-20.375 45.511-45.511v-455.112zM455.113 652.761c-12.57 0-22.758-10.189-22.758-22.756v-45.511h-45.51v91.022h91.022c0.026-4.301 0.457-8.593 1.297-12.811 0.252-1.343 0.683-2.572 1.003-3.869 0.521-2.025 0.909-4.119 1.591-6.076h-26.645zM568.887 675.517c0-12.567-10.189-22.755-22.754-22.755s-22.754 10.189-22.754 22.755v68.267c0 12.567 10.189 22.755 22.754 22.755s22.754-10.189 22.754-22.755v-68.267zM659.913 675.517c0-12.567-10.189-22.755-22.758-22.755-12.565 0-22.754 10.189-22.754 22.755v68.267c0 12.567 10.189 22.755 22.754 22.755 12.57 0 22.758-10.189 22.758-22.755v-68.267zM796.446 743.783c0 12.567 10.189 22.755 22.754 22.755s22.754-10.189 22.754-22.755v-68.267c0-12.567-10.189-22.755-22.754-22.755s-22.754 10.189-22.754 22.755v68.267zM705.421 743.783c0 12.567 10.189 22.755 22.758 22.755 12.565 0 22.754-10.189 22.754-22.755v-68.267c0-12.567-10.189-22.755-22.754-22.755-12.57 0-22.758 10.189-22.758 22.755v68.267zM978.487 584.495h-295.821c0 0.227 0 0.41 0 0.637-0.021 4.526-0.491 9.040-1.412 13.472-0.137 0.614-0.431 1.183-0.567 1.82-0.41 1.661-1.003 3.209-1.523 4.824-0.964 2.915-2.125 5.757-3.482 8.51-0.661 1.365-0.981 2.913-1.732 4.233 0.26 0.177 0.512 0.367 0.751 0.569 1.050 0.683 1.958 1.502 2.961 2.275 1.707 1.274 3.503 2.458 5.094 3.891 1.323-1.183 2.846-2.116 4.258-3.185 1.408-1.070 2.799-2.276 4.322-3.232 2.146-1.326 4.365-2.534 6.643-3.618 1.549-0.751 3.004-1.638 4.553-2.275 2.658-1.018 5.38-1.863 8.145-2.526 1.434-0.387 2.778-0.933 4.258-1.229 8.751-1.789 17.775-1.789 26.53 0 1.481 0.296 2.825 0.842 4.258 1.229 2.765 0.663 5.487 1.507 8.145 2.526 1.617 0.66 3.072 1.547 4.553 2.275 2.287 1.084 4.51 2.292 6.665 3.618 1.502 1.001 2.867 2.139 4.301 3.232s2.935 2.002 4.258 3.185c1.318-1.183 2.842-2.116 4.254-3.185s2.799-2.276 4.322-3.232c2.15-1.326 4.369-2.534 6.647-3.618 1.545-0.751 3.004-1.638 4.548-2.275 2.658-1.018 5.38-1.863 8.149-2.526 1.434-0.387 2.773-0.933 4.254-1.229 36.851-7.489 72.794 16.31 80.282 53.157 0.917 4.508 1.374 9.097 1.365 13.699h91.021v-91.022zM1115.021 402.449c0-25.135-20.373-45.508-45.508-45.508-25.139 0-45.513 20.373-45.513 45.508v455.112c0 25.136 20.373 45.511 45.513 45.511 25.135 0 45.508-20.375 45.508-45.511v-455.112zM1228.8 504.849c0-18.85-15.283-34.133-34.133-34.133s-34.133 15.283-34.133 34.133v250.312c0 18.85 15.283 34.133 34.133 34.133s34.133-15.283 34.133-34.133v-250.312zM1319.821 584.495h-45.508v91.022h45.508v-91.022z" />
<glyph unicode="&#xe934;" glyph-name="Vector-2" d="M512.128 960h-0.256c-282.325 0-511.872-229.632-511.872-512 0-112 36.096-215.808 97.451-300.117l-63.744-190.123 196.821 62.891c78.924-53.037 176.097-84.652 280.653-84.652 0.333 0 0.666 0 0.999 0.001h-0.052c282.283 0 511.872 229.717 511.872 512 0 282.325-229.547 512-511.872 512zM810.027 237.013c-12.331-34.901-61.355-63.829-100.437-72.277-26.795-5.717-61.739-10.24-179.371 38.528-150.443 62.336-247.339 215.253-254.891 225.152-7.253 9.899-60.8 80.939-60.8 154.453 0 73.472 37.333 109.227 52.352 124.587 12.373 12.587 32.768 18.347 52.352 18.347 6.315 0 12.032-0.299 17.152-0.555 15.019-0.64 22.613-1.536 32.512-25.301 12.373-29.739 42.411-103.211 46.037-110.763s7.253-17.792 2.133-27.733c-4.779-10.24-9.003-14.763-16.555-23.467s-14.72-15.36-22.272-24.704c-6.912-8.107-14.72-16.811-6.016-31.872 8.704-14.72 38.784-63.787 83.072-103.253 57.173-50.859 103.509-67.115 120.064-74.027 12.373-5.12 27.093-3.883 36.096 5.675 11.477 12.373 25.6 32.853 40.021 53.035 10.24 14.421 23.168 16.213 36.693 11.093 13.824-4.779 86.997-40.96 102.016-48.427 15.061-7.552 24.96-11.136 28.629-17.493 3.584-6.315 3.584-36.053-8.789-70.997z" />
<glyph unicode="&#xe935;" glyph-name="Vector1-1" d="M767.189 960h-511.189c-140.587 0-256-115.413-256-256.853v-511.147c0-140.587 115.413-256 256-256h511.189c141.397 0 256.811 115.413 256.811 256.811v510.379c0 141.397-115.413 256.811-256.811 256.811zM484.352 749.525c1.621 25.173 25.173 16.213 37.419 17.877 152.747-4.907 284.416-142.251 282.795-290.133 0-14.635 4.864-35.755-17.067-35.755-21.12 0-15.445 21.931-17.877 36.565-20.309 156.843-93.44 230.827-252.757 255.147-13.013 1.664-33.28-0.768-32.512 16.299zM712.747 470.741c-24.405-3.243-19.499 17.92-21.931 31.701-16.256 95.915-50.389 130.859-148.736 151.979-14.635 3.243-37.376 0.853-33.323 22.741 3.243 21.163 23.552 13.824 38.997 12.203 98.347-11.392 178.773-95.061 177.963-186.88-1.621-9.813 4.907-28.459-12.971-31.744zM651.776 521.131c0-13.013-1.621-25.173-16.213-26.795-10.581-1.621-17.067 7.296-18.731 17.877-4.053 38.997-25.173 62.549-65.835 69.077-12.16 1.621-23.552 5.675-17.877 21.931 4.096 10.581 13.824 12.203 24.405 12.203 43.861 0.811 94.293-50.389 94.293-94.293zM806.229 221.269c-17.067-46.336-74.795-93.44-124.373-92.672-7.296 1.621-21.12 4.096-33.323 8.96-217.813 91.819-376.277 242.987-465.664 459.179-30.080 72.32 1.621 134.101 77.227 158.464 13.781 4.864 26.795 4.864 40.619 0 32.512-11.392 114.56-122.709 116.181-155.221 1.664-25.173-16.213-38.997-33.28-50.389-33.323-21.931-33.323-49.579-18.731-81.28 31.701-69.888 86.187-118.613 156.885-149.547 25.173-11.349 50.347-10.539 67.413 15.445 30.891 46.336 69.12 43.904 110.549 15.445 21.12-14.635 42.24-28.416 61.781-43.861 26.795-21.973 60.928-39.851 44.672-84.523z" />
<glyph unicode="&#xe936;" glyph-name="Group-1" horiz-adv-x="683" d="M341.333 960c-188.216 0-341.333-153.054-341.333-341.168v-341.687c0-188.103 153.118-341.146 341.333-341.146s341.333 153.037 341.333 341.146v341.687c0 188.113-153.123 341.168-341.333 341.168zM644.739 277.146c0-167.196-136.107-303.218-303.406-303.218s-303.408 136.021-303.408 303.218v341.687c0 167.202 136.109 303.242 303.408 303.242s303.406-136.036 303.406-303.242v-341.687zM341.437 846.278c-10.473 0-18.965-8.483-18.965-18.965v-171.723c0-10.482 8.492-18.965 18.965-18.965s18.965 8.483 18.965 18.965v171.723c-0.005 10.482-8.492 18.965-18.965 18.965z" />
<glyph unicode="&#xe937;" glyph-name="vk" horiz-adv-x="1638" d="M1410.079 370.454c54.344-53.061 111.708-102.984 160.451-161.396 21.535-25.957 41.923-52.744 57.518-82.867 22.098-42.823 2.079-89.947-36.321-92.504l-238.684 0.109c-61.563-5.109-110.674 19.675-151.962 61.766-33.044 33.66-63.652 69.485-95.427 104.281-13.025 14.222-26.665 27.605-42.957 38.182-32.584 21.151-60.863 14.675-79.484-19.309-18.964-34.565-23.265-72.839-25.128-111.36-2.557-56.205-19.546-70.982-76.004-73.555-120.657-5.69-235.166 12.564-341.542 73.431-93.784 53.659-166.51 129.409-229.809 215.168-123.247 166.989-217.628 350.482-302.455 539.117-19.094 42.5-5.13 65.313 41.762 66.121 77.866 1.513 155.722 1.405 233.68 0.108 31.648-0.463 52.599-18.615 64.818-48.512 42.128-103.587 93.677-202.141 158.382-293.492 17.231-24.321 34.802-48.642 59.822-65.76 27.68-18.954 48.755-12.672 61.776 18.163 8.264 19.551 11.88 40.61 13.743 61.551 6.17 72.041 6.983 143.96-3.838 215.749-6.643 44.804-31.878 73.808-76.585 82.286-22.814 4.323-19.417 12.812-8.371 25.833 19.186 22.458 37.23 36.438 73.2 36.438h269.752c42.467-8.381 51.898-27.459 57.713-70.19l0.231-299.64c-0.463-16.542 8.263-65.63 38.058-76.58 23.848-7.795 39.569 11.283 53.875 26.404 64.584 68.549 110.684 149.559 151.859 233.443 18.278 36.886 33.997 75.191 49.224 113.465 11.284 28.401 28.989 42.376 60.979 41.757l259.615-0.231c7.7 0 15.493-0.113 22.948-1.389 43.745-7.456 55.736-26.275 42.22-68.995-21.289-67.025-62.71-122.88-103.209-178.994-43.295-59.908-89.6-117.766-132.536-178.030-39.455-55.032-36.321-82.77 12.687-130.567z" />
<glyph unicode="&#xe938;" glyph-name="fb" horiz-adv-x="576" d="M532.779 959.787l-132.79 0.213c-149.185 0-245.595-98.913-245.595-252.008v-116.193h-133.514c-11.537 0-20.88-9.353-20.88-20.89v-168.35c0-11.537 9.353-20.879 20.88-20.879h133.514v-424.803c0-11.533 9.343-20.877 20.88-20.877h174.198c11.537 0 20.88 9.35 20.88 20.877v424.803h156.109c11.537 0 20.88 9.342 20.88 20.879l0.064 168.35c0 5.539-2.205 10.845-6.115 14.765s-9.236 6.125-14.776 6.125h-156.163v98.498c0 47.342 11.282 71.375 72.952 71.375l89.453 0.032c11.527 0 20.87 9.353 20.87 20.88v156.322c0 11.516-9.332 20.859-20.848 20.88z" />
<glyph unicode="&#xe939;" glyph-name="inst" d="M704 960h-384c-176.704 0-320-143.296-320-320v-384c0-176.704 143.296-320 320-320h384c176.704 0 320 143.296 320 320v384c0 176.704-143.296 320-320 320zM928 256c0-123.52-100.48-224-224-224h-384c-123.52 0-224 100.48-224 224v384c0 123.52 100.48 224 224 224h384c123.52 0 224-100.48 224-224v-384zM512 704c-141.376 0-256-114.624-256-256s114.624-256 256-256c141.376 0 256 114.624 256 256s-114.624 256-256 256zM512 288c-88.192 0-160 71.808-160 160 0 88.256 71.808 160 160 160s160-71.744 160-160c0-88.192-71.808-160-160-160zM787.206 689.026c18.842 0 34.112 15.272 34.112 34.112s-15.27 34.112-34.112 34.112c-18.842 0-34.112-15.272-34.112-34.112s15.27-34.112 34.112-34.112z" />
<glyph unicode="&#xe93a;" glyph-name="date" d="M904 880h-48v80h-80v-80h-528v80h-80v-80h-48c-66.168 0-120-53.832-120-120v-704c0-66.17 53.832-120 120-120h784c66.17 0 120 53.83 120 120v704c0 66.168-53.83 120-120 120zM944 56c0-22.054-17.946-40-40-40h-784c-22.056 0-40 17.946-40 40v528h864v-528zM944 664h-864v96c0 22.056 17.944 40 40 40h48v-80h80v80h528v-80h80v80h48c22.054 0 40-17.944 40-40v-96zM232 500h-80v-80h80v80zM392 500h-80v-80h80v80zM552 500h-80v-80h80v80zM712 500h-80v-80h80v80zM872 500h-80v-80h80v80zM232 340h-80v-80h80v80zM392 340h-80v-80h80v80zM552 340h-80v-80h80v80zM712 340h-80v-80h80v80zM232 180h-80v-80h80v80zM392 180h-80v-80h80v80zM552 180h-80v-80h80v80zM712 180h-80v-80h80v80zM872 340h-80v-80h80v80z" />
<glyph unicode="&#xe93b;" glyph-name="i" d="M565.248 842.035c0 40.141-31.539 73.114-73.114 73.114-40.141 0-73.114-32.973-73.114-73.114 0-41.574 31.539-73.114 71.68-73.114 43.008 0 74.547 31.539 74.547 73.114zM669.901-64v21.504c-94.618 7.168-106.086 22.938-106.086 129.024v503.194l-5.734 5.734-222.208-78.848v-22.938c25.805 7.168 47.309 7.168 60.211 7.168 35.84 0 47.309-22.938 47.309-90.317v-325.427c0-108.954-14.336-121.856-113.254-127.59v-21.504h339.763z" />
<glyph unicode="&#xe93c;" glyph-name="vhod2" horiz-adv-x="896" d="M284.984 533.194c-14.922 0.249-28.6 8.377-35.937 21.366l-63.544 111.19-63.535-111.19c-7.392-12.943-21.034-21.053-35.937-21.366-14.894-0.313-28.868 7.217-36.802 19.837l-49.23 78.328 46.956-491.442c30.184 47.315 82.433 75.955 138.548 75.955 56.124 0 108.373-28.64 138.557-75.955l46.956 491.442-49.229-78.328c-7.87-12.685-21.881-20.233-36.803-19.837v0zM315.919 54.586l0.636 6.669c-0.313 1.050-0.525 2.125-0.636 3.219-6.416 67.206-62.872 118.528-130.392 118.528-67.511 0-123.967-51.322-130.392-118.528-0.101-1.088-0.313-2.17-0.635-3.213l0.635-6.675c6.186-67.328 62.78-118.771 130.392-118.522 67.613-0.25 124.216 51.194 130.392 118.522v0zM660.966 477.124c-67.614 0.239-124.208-51.21-130.394-118.538-0.111-1.096-0.323-2.173-0.636-3.222l0.636-6.665c6.186-67.331 62.78-118.774 130.394-118.537 67.61-0.237 124.205 51.206 130.387 118.537l0.64 6.665c-0.326 1.049-0.538 2.126-0.64 3.222-6.182 67.328-62.778 118.776-130.387 118.538v0zM846.458 925.609l-49.242-78.327c-7.923-12.611-21.901-20.141-36.8-19.828-14.906 0.313-28.55 8.422-35.942 21.356l-63.52 111.189-63.537-111.189c-7.401-12.934-21.043-21.043-35.937-21.356-14.904-0.313-28.877 7.217-36.812 19.828l-49.229 78.327 46.956-491.428c30.184 47.315 82.433 75.952 138.56 75.952 56.122 0 108.358-28.637 138.554-75.952l46.95 491.428z" />
<glyph unicode="&#xe93d;" glyph-name="vhod3" d="M682.669 738.15c42.662 0 76.8 34.134 76.8 76.8s-34.138 76.8-76.8 76.8c-42.669 0-76.802-34.133-76.802-76.8s34.133-76.8 76.802-76.8zM810.669 430.95c-119.469 0-213.336-93.866-213.336-213.331 0-119.469 93.867-213.338 213.336-213.338 119.462 0 213.331 93.869 213.331 213.338 0 119.466-93.869 213.331-213.331 213.331zM810.669 68.282c-81.069 0-149.338 68.269-149.338 149.338s68.269 149.331 149.338 149.331c81.062 0 149.331-68.262 149.331-149.331s-68.269-149.338-149.331-149.338zM631.467 516.284h179.202v76.8h-136.538l-81.064 140.8c-12.8 21.333-34.134 34.133-64 34.133-21.334 0-38.4-8.533-51.2-21.333l-157.867-157.867c-12.8-12.8-21.333-29.867-21.333-51.2 0-25.6 12.8-51.2 34.133-64l145.067-85.333v-213.333h76.8v277.333l-93.867 72.533 98.133 98.133 72.534-106.666zM213.333 430.95c-119.466 0-213.333-93.866-213.333-213.331 0-119.469 93.867-213.338 213.333-213.338s213.334 93.869 213.334 213.338c0 119.466-93.867 213.331-213.334 213.331zM213.333 68.282c-81.066 0-149.333 68.269-149.333 149.338s68.267 149.331 149.333 149.331c81.067 0 149.334-68.262 149.334-149.331s-68.267-149.338-149.334-149.338z" />
<glyph unicode="&#xe93e;" glyph-name="vhod5" d="M120.312 182.483l29.348-118.579c23.673-83.578 181.693-127.91 362.31-127.91 178.73 0 340.739 45.261 362.326 127.91l29.35 118.598c-125.037-53.683-258.259-81.133-391.693-81.133-133.404 0.006-266.626 27.45-391.642 81.114zM627.657 620.274c-27.844 2.99-48.986 26.482-48.986 54.476v0.081c0 35.453 10.788 69.713 30.988 98.845 13.299 19.173 21.089 42.449 21.089 67.543 0.003 65.613-53.166 118.781-118.777 118.781-65.594 0-118.781-53.168-118.781-118.779 0-25.094 7.793-48.37 21.094-67.544 20.131-29.020 30.984-63.526 30.984-98.845v-0.081c0-28.060-21.089-51.468-48.983-54.476-178.731-19.292-337.347-83.099-337.347-186.179 0-14.292 43.011-177.405 43.011-177.405 258.702-126.566 561.361-126.586 820.061 0.013 0 0 42.995 163.103 42.995 177.393 0 103.078-158.618 166.885-337.348 186.177zM511.972 895.416c30.404 0 55.055-24.648 55.055-55.056 0-30.404-24.652-55.055-55.055-55.055-30.406 0-55.055 24.652-55.055 55.055 0.002 30.406 24.649 55.056 55.055 55.056zM511.972 561.064c233.123 0 376.271-73.963 376.271-126.969 0-53.037-143.142-126.984-376.271-126.984-233.126 0-376.274 73.947-376.274 126.984 0 53.006 143.148 126.969 376.274 126.969z" />
<glyph unicode="&#xe93f;" glyph-name="vhod6" d="M957.766 845.066c-7.802 2.926-13.043 10.49-13.043 18.822s5.242 15.896 13.043 18.822c17.267 6.476 26.016 25.722 19.539 42.99s-25.728 26.014-42.989 19.54c-33.722-12.646-56.378-45.338-56.378-81.352s22.65-68.704 56.378-81.352c7.802-2.926 13.043-10.49 13.043-18.822s-5.242-15.896-13.043-18.822c-17.267-6.476-26.022-25.722-19.539-42.99 5.024-13.406 17.747-21.676 31.27-21.676 3.891 0 7.853 0.688 11.718 2.134 33.722 12.646 56.378 45.338 56.378 81.352 0 36.016-22.656 68.706-56.378 81.354zM790.893 845.066c-7.802 2.926-13.043 10.49-13.043 18.822s5.242 15.896 13.043 18.822c17.267 6.476 26.016 25.722 19.539 42.99s-25.728 26.014-42.989 19.54c-33.722-12.646-56.378-45.338-56.378-81.352s22.65-68.704 56.378-81.352c7.802-2.926 13.037-10.49 13.037-18.822s-5.235-15.896-13.037-18.822c-17.274-6.476-26.022-25.722-19.546-42.99 5.030-13.406 17.754-21.676 31.27-21.676 3.898 0 7.859 0.688 11.725 2.134 33.715 12.646 56.371 45.338 56.371 81.352 0 36.016-22.656 68.706-56.371 81.354zM256.643 845.066c-7.802 2.926-13.042 10.49-13.042 18.822s5.24 15.896 13.042 18.822c17.268 6.476 26.018 25.722 19.54 42.99-6.474 17.268-25.73 26.014-42.99 19.54-33.722-12.646-56.38-45.338-56.38-81.352s22.655-68.704 56.38-81.352c7.802-2.926 13.042-10.49 13.042-18.822s-5.24-15.896-13.042-18.822c-17.268-6.476-26.018-25.722-19.54-42.99 5.026-13.406 17.75-21.676 31.27-21.676 3.896 0 7.858 0.688 11.72 2.134 33.72 12.646 56.378 45.338 56.378 81.352-0.002 36.016-22.658 68.706-56.378 81.354zM89.641 845.069c-7.802 2.926-13.043 10.49-13.043 18.822s5.24 15.896 13.043 18.822c17.268 6.476 26.018 25.722 19.54 42.99-6.474 17.264-25.73 26.010-42.988 19.538-33.722-12.646-56.38-45.338-56.38-81.352s22.656-68.705 56.38-81.352c7.802-2.926 13.042-10.49 13.042-18.822s-5.24-15.896-13.042-18.822c-17.268-6.476-26.018-25.722-19.54-42.99 5.026-13.406 17.75-21.676 31.27-21.676 3.896 0 7.858 0.688 11.72 2.134 33.72 12.646 56.378 45.338 56.378 81.352-0.002 36.019-22.66 68.708-56.38 81.356zM1020.717 147.776c-7.955 16.634-27.885 23.667-44.531 15.706-46.554-22.278-102.176-18.317-145.152 10.33-26.31 17.542-55.424 28.653-85.299 33.389v205.954h66.784v-100.175c0-55.232 44.934-100.166 100.173-100.166 55.232 0 100.166 44.934 100.166 100.166v200.347c0 55.236-44.934 100.172-100.166 100.172h-267.219c21.005 27.924 33.478 62.616 33.478 100.172 0 92.058-74.895 166.955-166.953 166.955s-166.954-74.897-166.954-166.955c0-37.556 12.472-72.248 33.482-100.172h-267.217c-55.236 0-100.172-44.938-100.172-100.172v-200.347c0-55.232 44.938-100.166 100.172-100.166s100.172 44.934 100.172 100.166v100.175h66.782v-205.954c-29.874-4.742-58.994-15.846-85.302-33.389-42.972-28.646-98.591-32.608-145.151-10.33-16.634 7.962-36.572 0.928-44.532-15.706s-0.928-36.57 15.708-44.531c67.692-32.39 148.553-26.643 211.018 15.002 24.474 16.314 52.472 24.563 80.518 24.781 0.378-0.013 0.75-0.058 1.13-0.058s0.752 0.045 1.13 0.058c28.046-0.218 56.048-8.467 80.518-24.781 36.052-24.032 77.375-36.051 118.694-36.051s82.643 12.019 118.694 36.051c24.472 16.314 52.472 24.563 80.523 24.781 0.378-0.013 0.742-0.058 1.126-0.058s0.755 0.045 1.133 0.058c28.051-0.218 56.051-8.467 80.518-24.781 62.47-41.645 143.328-47.398 211.021-15.002 16.634 7.962 23.667 27.898 15.706 44.531zM511.997 813.845c55.236 0 100.172-44.938 100.172-100.172 0-55.236-44.938-100.173-100.172-100.173s-100.172 44.938-100.172 100.173c0 55.234 44.938 100.172 100.172 100.172zM712.346 479.936c-18.445 0-33.389-14.95-33.389-33.39v-239.346c-29.875-4.742-58.995-15.853-85.305-33.389-49.604-33.069-113.699-33.069-163.3 0-26.31 17.542-55.428 28.646-85.302 33.389v239.346c0 18.44-14.95 33.39-33.389 33.39h-133.571c-18.44 0-33.39-14.95-33.39-33.39v-133.567c0-18.406-14.98-33.389-33.39-33.389-18.412 0-33.39 14.982-33.39 33.389v200.347c0 18.412 14.98 33.39 33.39 33.39h801.382c18.413 0 33.389-14.98 33.389-33.39v-200.347c0-18.406-14.982-33.389-33.389-33.389-18.413 0-33.389 14.982-33.389 33.389v133.567c0 18.44-14.95 33.39-33.395 33.39h-133.562zM1020.717 14.163c-7.955 16.634-27.885 23.667-44.531 15.706-46.554-22.278-102.17-18.317-145.146 10.33-72.109 48.070-165.286 48.070-237.39 0-49.604-33.069-113.699-33.069-163.3 0-72.106 48.064-165.286 48.064-237.388 0-42.972-28.653-98.591-32.608-145.151-10.33-16.634 7.962-36.572 0.928-44.532-15.706-7.96-16.64-0.928-36.576 15.708-44.531 67.692-32.397 148.553-26.643 211.018 15.002 49.604 33.062 113.698 33.062 163.302 0 36.050-24.038 77.374-36.058 118.694-36.058s82.642 12.019 118.694 36.058c49.605 33.062 113.701 33.062 163.301 0 62.47-41.651 143.328-47.398 211.021-15.002 16.627 7.955 23.661 27.898 15.699 44.531z" />
<glyph unicode="&#xe940;" glyph-name="vhod4" d="M399.937 64.198c37.407-70.925 89.086-117.792 92.070-120.461 5.695-5.101 12.852-7.648 20.008-7.648s14.321 2.547 20.016 7.648c2.984 2.669 54.648 49.536 92.054 120.461-44.023 17.51-82.078 41.542-112.070 64.301-30-22.758-68.047-46.79-112.078-64.301zM954.093 324c-5.574-6.323-11.309-12.467-17.216-18.374-58.944-58.938-137.171-101.088-232.525-125.274-50.643-12.845-97.563-18.304-132.915-20.499 46.883-31.328 110.47-61.485 181.555-61.485 144.826 0 258.554 125.158 263.328 130.483 10.195 11.392 10.195 28.627 0 40.013-1.562 1.747-24.595 27.181-62.227 55.136zM319.686 180.346c-95.352 24.186-173.586 66.336-232.531 125.28-5.914 5.907-11.641 12.045-17.227 18.374-37.625-27.955-60.656-53.402-62.219-55.136-10.195-11.386-10.195-28.627 0-40.019 4.773-5.331 118.5-130.477 263.32-130.477 71.094 0 134.672 30.157 181.563 61.485-35.352 2.195-82.274 7.654-132.906 20.493zM492.024 226.528c5.695-5.107 12.851-7.661 20.008-7.661s14.312 2.554 20.015 7.661c7.359 6.586 180.267 163.7 180.267 362.911 0 199.203-172.908 356.319-180.267 362.913-5.695 5.102-12.86 7.648-20.015 7.648s-14.312-2.547-20.008-7.648c-7.368-6.594-180.274-163.71-180.274-362.913s172.915-356.325 180.274-362.911zM830.88 805.729c-14.547 50.369-30.202 83.33-31.194 85.377-6.618 13.789-22.547 20.383-36.973 15.321-2.144-0.758-36.512-12.977-82.4-38.306 19.859-30.188 36.685-60.908 50.266-91.729 34.285 13.313 68.397 22.735 100.301 29.337zM343.695 868.12c-45.883 25.328-80.25 37.546-82.399 38.304-14.429 5.070-30.359-1.531-36.977-15.312-0.984-2.054-16.648-35.015-31.195-85.382 31.898-6.593 66.015-16.015 100.305-29.327 13.578 30.804 30.406 61.53 50.266 91.717zM772.301 589.453c0-52.852-10.451-107.086-31.066-161.18-16.147-42.39-38.579-84.851-66.675-126.219-21.421-31.546-43.091-57.926-60.998-77.914 82.604 10.682 197.83 40.877 280.902 123.937 140.858 140.86 129.696 374.227 129.146 384.094-0.845 15.265-13.030 27.453-28.294 28.296-1.35 0.070-7.962 0.406-18.694 0.406-38.861 0-131.763-4.312-224.896-40.578 13.664-43.985 20.576-87.868 20.576-130.844zM410.468 224.128c-17.906 19.994-39.578 46.374-61 77.926-28.094 41.364-50.531 83.826-66.68 126.216-20.609 54.095-31.062 108.329-31.062 161.181 0 42.977 6.906 86.86 20.578 130.844-93.133 36.266-186.023 40.579-224.883 40.579-10.75 0-17.359-0.328-18.711-0.406-15.266-0.844-27.453-13.031-28.297-28.297-0.547-9.867-11.711-243.236 129.148-384.097 83.078-83.070 198.305-113.259 280.906-123.947z" />
<glyph unicode="&#xe941;" glyph-name="vhod8" d="M5.375 594.875l449.881-558.491-204.062 558.491h-245.819zM291.313 594.875l217.41-595.035 221.684 595.035h-439.094zM557.125 21.958l461.48 572.916h-248.064l-213.416-572.916zM842.586 896.125h-291.023l199.542-245.594 91.482 245.594zM717.178 632.604l-205.192 252.522-205.172-252.522h410.365zM472.417 896.125h-291.229l90.349-247.25 200.88 247.25zM149.841 872.25l-149.841-239.739h237.423l-87.581 239.739zM1023.981 632.516l-149.99 239.983-89.427-239.983h239.418z" />
<glyph unicode="&#xe942;" glyph-name="vhod7" d="M512 960c-282.767 0-512-229.234-512-512.001 0-282.77 229.233-511.999 512-511.999 282.765 0 512 229.229 512 511.999-0.314 282.634-229.37 511.685-512 512.001zM530.275 812.392l177.994 71.15c20.198-9.142 39.738-19.676 58.483-31.525l0.467-0.292c18.413-11.667 36.013-24.575 52.678-38.634l1.434-1.25c7.475-6.367 14.746-12.958 21.811-19.758 0.89-0.875 1.824-1.709 2.714-2.6 7.411-7.233 14.586-14.692 21.53-22.367 0.57-0.65 1.12-1.333 1.696-1.983 6.093-6.825 11.949-13.892 17.632-21.075 1.37-1.708 2.739-3.416 4.064-5.124 6.163-7.983 12.128-16.109 17.766-24.492l-35.488-150.833-174.573-58.2-168.166 134.559-0.042 172.426zM133.208 738.833c1.325 1.709 2.675 3.417 4.042 5.117 5.617 7.125 11.425 14.075 17.425 20.858 0.65 0.717 1.25 1.45 1.891 2.167 6.9 7.692 14.042 15.142 21.442 22.358 0.85 0.833 1.7 1.708 2.592 2.475 7.008 6.758 14.216 13.308 21.625 19.642l1.708 1.434c16.516 13.958 33.95 26.783 52.183 38.4l0.667 0.425c18.634 11.825 38.050 22.342 58.133 31.492l178.808-70.808v-172.376l-168.175-134.534-174.575 58.092-35.483 150.833c5.683 8.367 11.583 16.476 17.716 24.425zM112.642 186.106c-5.017 7.654-9.817 15.443-14.392 23.386l-1.108 1.914c-4.55 7.904-8.858 15.936-12.916 24.096l-0.142 0.256c-8.55 17.165-16.058 34.835-22.475 52.909v0.166c-3.033 8.531-5.8 17.274-8.358 26.067l-0.925 3.238c-2.342 8.261-4.467 16.611-6.367 25.053-0.167 0.825-0.375 1.608-0.542 2.425-4.192 19.067-7.2 38.367-9.017 57.809l104.191 125.025 173.367-57.784 50.317-201.251-82.675-109.997-168.958 26.688zM625.65-16.096c-8.533-2.112-17.292-3.942-26.050-5.581-1.225-0.243-2.475-0.442-3.7-0.666-7.459-1.338-15-2.477-22.559-3.411-2.017-0.256-4.017-0.531-6.025-0.774-7.016-0.813-14.1-1.434-21.2-1.939-2.233-0.154-4.442-0.378-6.675-0.518-9.075-0.557-18.225-0.883-27.442-0.883-8.442 0-16.833 0.224-25.175 0.666-1.008 0-1.975 0.166-2.983 0.243-7.425 0.422-14.817 0.986-22.192 1.702l-0.85 0.154c-16.158 1.754-32.225 4.32-48.125 7.68l-100.95 158.054 81.375 108.512h237.8l82.707-109.229-87.956-154.010zM978.707 345.599c-0.173-0.817-0.371-1.608-0.55-2.425-1.907-8.433-4.032-16.783-6.368-25.049l-0.915-3.245c-2.566-8.787-5.325-17.498-8.365-26.067v-0.166c-6.419-18.074-13.92-35.738-22.477-52.909l-0.141-0.256c-4.083-8.166-8.384-16.198-12.915-24.090l-1.107-1.92c-4.55-7.968-9.344-15.738-14.368-23.347l-168.384-26.554-83.251 109.914 50.291 201.197 173.37 57.784 104.192-125.025c-1.811-19.45-4.819-38.767-9.011-57.842v0z" />
<glyph unicode="&#xe943;" glyph-name="ne1" d="M627.076 669.663l-198.815 10.57c-2.307 0.124-4.63-0.395-6.671-1.496l-109.517-59.072c-3.326-1.795-5.679-4.989-6.402-8.701s0.255-7.556 2.662-10.469l56.34-68.154c0.547 0.413 1.106 0.813 1.734 1.142l260.669 136.18zM1019.392 740.241c-0.102 0.211-0.205 0.42-0.314 0.625-7.859 14.717-25.619 32.259-65.568 32.259-42.010 0-87.731-19.078-89.651-19.891-110.816-44.149-632.401-318.611-632.401-318.611l-124.901 67.296c-3.694 1.989-8.127 2.018-11.839 0.079l-87.933-45.926c-3.71-1.935-6.218-5.584-6.701-9.74-0.479-4.156 1.121-8.28 4.287-11.018l214.891-185.772c3.927-3.386 9.517-4.045 14.109-1.638l209.846 109.484 31.752-223.724c0.579-4.090 3.121-7.635 6.805-9.498 1.793-0.909 3.75-1.363 5.704-1.363 2.058 0 4.118 0.506 5.983 1.51 22.305 11.994 36.228 19.584 49.689 26.931 13.715 7.488 27.899 15.226 50.847 27.552 2.456 1.318 4.402 3.411 5.545 5.952l149.348 332.22 153.517 80.15c71.776 36.447 140.198 93.19 116.986 143.123z" />
<glyph unicode="&#xe944;" glyph-name="vhod1" d="M1005.786 645.445l-84.672 84.675 63.648 63.629c5.632 5.622 8.794 13.24 8.794 21.208s-3.162 15.586-8.787 21.21l-85.222 85.223c-11.251 11.25-31.174 11.25-42.426 0l-63.629-63.654-84.691 84.691c-23.43 23.43-61.414 23.43-84.849 0s-23.434-61.419 0-84.851l296.984-296.982c23.43-23.43 61.421-23.43 84.851 0s23.43 61.42 0 84.851zM399.409 38.438l-296.982 296.989c-23.434 23.43-61.42 23.43-84.854 0-23.43-23.434-23.43-61.424 0-84.854l84.69-84.691-63.53-63.501c-5.626-5.626-8.79-13.242-8.79-21.21s3.164-15.59 8.79-21.21l85.224-85.197c5.858-5.862 13.534-8.794 21.21-8.794s15.352 2.931 21.21 8.787l63.505 63.507 84.676-84.678c23.43-23.43 61.42-23.43 84.852 0 23.434 23.43 23.434 61.421 0 84.851zM539.132 603l-182.132-182.753 127.281-127.281 182.132 182.757-127.281 127.277zM920.954 475.714l-381.839 381.839c-23.43 23.43-61.422 23.43-84.852 0-23.434-23.434-23.434-61.42 0-84.854l381.839-381.839c23.43-23.43 61.421-23.43 84.851 0 23.437 23.43 23.437 61.42 0 84.854zM569.141 123.341l-381.841 381.837c-23.43 23.43-61.42 23.43-84.85 0-23.434-23.434-23.434-61.424 0-84.854l381.838-381.834c23.43-23.43 61.42-23.43 84.852 0 23.434 23.424 23.434 61.414 0 84.851z" />
<glyph unicode="&#xe945;" glyph-name="ne3" d="M509.761 297.498c-49.403 0-89.824-40.416-89.824-89.824v-181.894c0-49.402 40.421-89.824 89.824-89.824s89.825 40.422 89.825 89.824v181.894c0 49.408-40.419 89.824-89.825 89.824zM835.334 847.72h-172.915c-20.211 65.122-80.839 112.28-152.701 112.28s-132.492-47.158-152.702-112.28h-170.666c-24.702 0-44.913-20.211-44.913-44.913s20.211-44.912 44.913-44.912h172.912c11.228-38.175 35.93-69.614 69.614-89.824-121.263-35.93-211.088-148.211-211.088-280.701v-235.792c0-40.416 33.684-74.099 74.106-74.099h60.632v127.994c0 87.584 71.86 159.441 159.439 159.441s159.441-71.857 159.441-159.441v-127.994h60.627c40.422 0 74.106 33.683 74.106 74.099v233.546c0 132.493-89.824 247.017-211.087 280.701 33.684 20.211 58.383 51.649 69.615 89.824h172.909c24.704 0 44.915 20.211 44.915 44.913-2.246 26.947-22.458 47.158-47.155 47.158zM509.718 710.737c-49.404 0-89.825 40.421-89.825 89.825s40.421 89.824 89.825 89.824c49.404 0 89.825-40.42 89.825-89.824 2.246-49.404-38.175-89.825-89.825-89.825z" />
<glyph unicode="&#xe946;" glyph-name="ne2" d="M512 550.425c-84.838 0-153.6-68.792-153.6-153.6 0-84.838 68.762-153.599 153.6-153.599 84.818 0 153.6 68.762 153.6 153.599 0 84.808-68.782 153.6-153.6 153.6zM921.6 704.025h-122.88c-16.896 0-35.104 13.107-40.435 29.143l-31.77 95.324c-5.35 16.026-23.539 29.133-40.435 29.133h-348.16c-16.896 0-35.103-13.107-40.438-29.143l-31.764-95.324c-5.356-16.026-23.542-29.133-40.438-29.133h-122.88c-56.32 0-102.4-46.080-102.4-102.4v-460.799c0-56.32 46.080-102.4 102.4-102.4h819.2c56.32 0 102.4 46.080 102.4 102.4v460.799c0 56.32-46.080 102.4-102.4 102.4zM512 140.826c-141.384 0-256 114.618-256 255.999 0 141.373 114.616 256 256 256 141.363 0 256-114.627 256-256 0-141.382-114.637-255.999-256-255.999zM885.76 530.017c-19.782 0-35.84 16.036-35.84 35.84 0 19.784 16.058 35.84 35.84 35.84 19.802 0 35.84-16.056 35.84-35.84 0-19.804-16.045-35.84-35.84-35.84z" />
</font>
</defs>
</svg>
